<svg id="aws" xmlns="http://www.w3.org/2000/svg" width="60.34" height="58.999" viewBox="0 0 98.34 58.999">
  <path id="Path_6" data-name="Path 6" d="M24.313,25.632a9.843,9.843,0,0,0,.356,2.92,17.713,17.713,0,0,0,1.045,2.36,1.432,1.432,0,0,1,.227.756,1.308,1.308,0,0,1-.615.983l-2.065,1.377a1.567,1.567,0,0,1-.848.3,1.489,1.489,0,0,1-.983-.455,10.154,10.154,0,0,1-1.18-1.543q-.545-.946-1.008-1.936a12.085,12.085,0,0,1-9.619,4.53,8.942,8.942,0,0,1-6.54-2.366,8.437,8.437,0,0,1-2.422-6.3,8.474,8.474,0,0,1,2.975-6.761,11.87,11.87,0,0,1,8.015-2.557,26.58,26.58,0,0,1,3.467.258c1.211.166,2.459.43,3.762.725v-2.4c0-2.5-.522-4.235-1.537-5.249-1.045-1.02-2.815-1.512-5.335-1.512a14.838,14.838,0,0,0-3.528.43A26,26,0,0,0,4.946,10.3a9.373,9.373,0,0,1-1.143.43,2,2,0,0,1-.522.1c-.461,0-.688-.332-.688-1.02V8.2a2.03,2.03,0,0,1,.227-1.143,2.452,2.452,0,0,1,.922-.695A18.6,18.6,0,0,1,7.859,4.888a19.57,19.57,0,0,1,5.1-.621c3.891,0,6.736.885,8.568,2.655,1.8,1.77,2.717,4.462,2.717,8.076V25.632h.061ZM11.031,30.617a10.6,10.6,0,0,0,3.368-.59,7.247,7.247,0,0,0,3.1-2.1,5.212,5.212,0,0,0,1.112-2.1,11.817,11.817,0,0,0,.332-2.858V21.594a27.229,27.229,0,0,0-3.012-.553,24.561,24.561,0,0,0-3.073-.2,7.529,7.529,0,0,0-4.874,1.315,4.569,4.569,0,0,0-1.6,3.774,4.606,4.606,0,0,0,1.2,3.479A4.541,4.541,0,0,0,11.031,30.617Zm26.263,3.546a1.788,1.788,0,0,1-1.242-.332,2.634,2.634,0,0,1-.688-1.278L27.681,7.187a5.765,5.765,0,0,1-.3-1.315.715.715,0,0,1,.781-.817h3.208a1.82,1.82,0,0,1,1.272.326,2.674,2.674,0,0,1,.658,1.278L38.8,28.386,43.9,6.659a2.275,2.275,0,0,1,.621-1.278,2.243,2.243,0,0,1,1.309-.326H48.45a1.967,1.967,0,0,1,1.3.326,2.228,2.228,0,0,1,.627,1.278L55.543,28.65,61.2,6.659a2.821,2.821,0,0,1,.658-1.278,2.133,2.133,0,0,1,1.278-.326h3.042a.728.728,0,0,1,.817.817,4.517,4.517,0,0,1-.061.529,4.721,4.721,0,0,1-.234.817L58.813,32.584a2.516,2.516,0,0,1-.682,1.285,2.09,2.09,0,0,1-1.248.326H54.074a1.986,1.986,0,0,1-1.309-.326,2.319,2.319,0,0,1-.621-1.315L47.073,11.391l-5.04,21.137a2.536,2.536,0,0,1-.615,1.309,2.014,2.014,0,0,1-1.309.332H37.294Zm42.029.885a21.574,21.574,0,0,1-5.04-.59,14.9,14.9,0,0,1-3.762-1.315,1.87,1.87,0,0,1-1.2-1.838V29.634c0-.688.258-1.02.75-1.02a1.844,1.844,0,0,1,.59.1c.2.068.492.2.817.332a17.825,17.825,0,0,0,3.6,1.149,19.894,19.894,0,0,0,3.891.393A8.819,8.819,0,0,0,83.736,29.5a3.534,3.534,0,0,0,1.7-3.122,3.2,3.2,0,0,0-.885-2.293,8.061,8.061,0,0,0-3.3-1.709l-4.745-1.475a9.981,9.981,0,0,1-5.231-3.35A7.837,7.837,0,0,1,69.643,12.8a7.388,7.388,0,0,1,.879-3.645,8.531,8.531,0,0,1,2.36-2.692,10.448,10.448,0,0,1,3.4-1.7A14.213,14.213,0,0,1,80.4,4.2a16.364,16.364,0,0,1,2.194.129c.75.1,1.438.234,2.127.369.652.16,1.278.32,1.862.522a7.271,7.271,0,0,1,1.377.59,2.833,2.833,0,0,1,.983.817,1.776,1.776,0,0,1,.289,1.082V9.252c0,.688-.258,1.051-.75,1.051A3.393,3.393,0,0,1,87.24,9.91a14.923,14.923,0,0,0-6.282-1.278,8.394,8.394,0,0,0-4.352.922,3.159,3.159,0,0,0-1.537,2.92,3.1,3.1,0,0,0,.983,2.329,9.794,9.794,0,0,0,3.6,1.8L84.3,18.079a9.959,9.959,0,0,1,5.071,3.153,7.442,7.442,0,0,1,1.5,4.6,8.408,8.408,0,0,1-.848,3.8,8.82,8.82,0,0,1-2.385,2.889A10.539,10.539,0,0,1,84,34.36a15.485,15.485,0,0,1-4.677.688Z" transform="translate(3.406 -4.2)" fill="#121b18"/>
  <path id="Path_7" data-name="Path 7" d="M88.907,18.562C78.151,26.533,62.514,30.768,49.072,30.768A71.939,71.939,0,0,1,.436,12.163c-1.014-.922-.1-2.17,1.106-1.444A97.9,97.9,0,0,0,50.222,23.682,96.849,96.849,0,0,0,87.34,16.066c1.8-.817,3.337,1.18,1.567,2.5Z" transform="translate(0 28.231)" fill="#121b18" fill-rule="evenodd"/>
  <path id="Path_8" data-name="Path 8" d="M26.477,15.073c-1.371-1.764-9.09-.848-12.588-.424-1.045.135-1.211-.787-.264-1.475,6.146-4.333,16.257-3.085,17.431-1.641,1.18,1.475-.326,11.617-6.085,16.472-.879.756-1.727.369-1.334-.615,1.3-3.258,4.216-10.572,2.84-12.311Z" transform="translate(66.911 26.599)" fill="#121b18" fill-rule="evenodd"/>
</svg>
