<svg xmlns="http://www.w3.org/2000/svg" width="54.16" height="75.129" viewBox="0 0 54.16 75.129">
  <path id="Certified-courses" d="M182.206,56.139V67.731l5.554,2.312V53.1a31.5,31.5,0,0,1-5.554,3.038Zm-30-3.038V69.927l5.554-2.312V56.139a31.5,31.5,0,0,1-5.554-3.038Zm17.776,5.5a31.472,31.472,0,0,1-7.777-.972v17.5l7.777-3.237,7.777,3.237v-17.5A31.476,31.476,0,0,1,169.984,58.605Zm0-58.605a27.08,27.08,0,1,0,27.08,27.08A27.111,27.111,0,0,0,169.984,0Zm0,48.438a21.468,21.468,0,1,1,21.468-21.468A21.493,21.493,0,0,1,169.984,48.438Zm0-38.491a17.023,17.023,0,1,0,17.023,17.023A17.042,17.042,0,0,0,169.984,9.946Zm7,26.958-7-3.678-7,3.678,1.336-7.791-5.66-5.517,7.822-1.137,3.5-7.088,3.5,7.088L181.3,23.6l-5.66,5.517L176.98,36.9Z" transform="translate(-142.904)" fill="#f8f8f8"/>
</svg>
