<svg xmlns="http://www.w3.org/2000/svg" width="60" height="60.342" viewBox="0 0 71.342 71.342">
  <path id="git_white" d="M41.6,9.817a6.632,6.632,0,0,0-9.379,0L30,12.044l5.2,5.2a6.638,6.638,0,0,1,8.125,8.125l6.8,6.8a6.624,6.624,0,1,1-4.69,4.69l-5.2-5.2V47.749a6.632,6.632,0,1,1-6.632,0V29.394a6.643,6.643,0,0,1-3.091-7.462l-5.2-5.2L9.817,32.224a6.632,6.632,0,0,0,0,9.379L32.224,64.01a6.632,6.632,0,0,0,9.379,0L64.01,41.6a6.632,6.632,0,0,0,0-9.379ZM27.535,5.128a13.264,13.264,0,0,1,18.758,0L68.7,27.535a13.264,13.264,0,0,1,0,18.758L46.292,68.7a13.264,13.264,0,0,1-18.758,0L5.128,46.292a13.264,13.264,0,0,1,0-18.758Z" transform="translate(-1.243 -1.243)" fill="#fff" fill-rule="evenodd"/>
</svg>
