<svg xmlns="http://www.w3.org/2000/svg" width="60" height="60" viewBox="0 0 78 77">
  <g id="jenkins_white" transform="translate(0.222 -0.416)">
    <g id="invisible_box" data-name="invisible box">
      <rect id="Rectangle_38" data-name="Rectangle 38" width="78" height="77" transform="translate(-0.222 0.416)" fill="none"/>
    </g>
    <g id="Q3_icons" data-name="Q3 icons" transform="translate(3.4 3.238)">
      <g id="surface1">
        <path id="Path_29" data-name="Path 29" d="M41.445,2c-9.391,0-16.03,1.619-20.563,4.21a13.439,13.439,0,0,0-6.962,8.581,7.934,7.934,0,0,0-2.753,2.914C9.71,19.973,9.224,23.7,10.52,29.364a8.9,8.9,0,0,0-3.562,5.991,9.553,9.553,0,0,0,2.429,7.934,9.877,9.877,0,0,0,5.181,3.076c.648.162.648,0,1.133,0a35.945,35.945,0,0,0,2.914,8.1l-7.61,4.372L5.338,62.07,3.4,63.366l-.648.486-.324.324s-.324.162-.324.81v1.133l2.753,7.124H67.514l.324-1.3s.324-2.1.81-4.534a37.726,37.726,0,0,0,.648-6.639,1.943,1.943,0,0,0-.324-1.133l-.486-.486-1.3-.971-3.238-2.1-3.238-1.943a24.611,24.611,0,0,0,3.238-5.829,47.279,47.279,0,0,0,2.914-21.7c-.648-9.067-3.724-15.382-8.42-19.268A24.935,24.935,0,0,0,43.064,2Zm1.133,3.076A21.535,21.535,0,0,1,56.5,9.772a19.43,19.43,0,0,1,5.019,6.638l-1.781-.486H55.208L55.694,19a11.334,11.334,0,0,1,3.562,0,4.048,4.048,0,0,1,3.886,3.562H63.3a14.572,14.572,0,0,1,.324,2.914,3.238,3.238,0,0,0-.648-1.3L61.361,21.43,58.77,22.887a25.26,25.26,0,0,1,1.457,2.753,6.639,6.639,0,0,1,.971,1.781,11.334,11.334,0,0,1-3.724-.648L56.5,29.849a17.487,17.487,0,0,0,4.857.648,4.534,4.534,0,0,0,2.1-.486h.486a43.393,43.393,0,0,1-2.914,17.325A23.639,23.639,0,0,1,57.8,53.165h0A11.982,11.982,0,0,1,47.76,58.022c-7.286,0-13.925-3.4-16.03-5.667a11.334,11.334,0,0,1-2.591-5.343l-3.076.486a13.6,13.6,0,0,0,3.4,6.639,19.106,19.106,0,0,0,4.372,3.238,3.562,3.562,0,0,0-2.267,1.457.648.648,0,0,0-.162.486,14.087,14.087,0,0,1-7.448-2.591,8.42,8.42,0,0,1-1.943-2.1V54.3a30.926,30.926,0,0,1-3.076-8.258,8.42,8.42,0,0,0,2.429-3.076l-2.753-1.457a7.772,7.772,0,0,1-1.3,1.943h-.486a2.591,2.591,0,0,1-1.457-.162,5.991,5.991,0,0,1-3.724-2.1,6.962,6.962,0,0,1-1.619-5.505,5.667,5.667,0,0,1,2.753-4.372h0a5.019,5.019,0,0,1,3.4-.971,1.943,1.943,0,0,1,1.3.971,10.686,10.686,0,0,1,.81,3.238v2.429L24.444,33.9v-.971a12.305,12.305,0,0,0-.81-3.724,6.638,6.638,0,0,1,.486-4.534A34.488,34.488,0,0,0,25.9,19.325a5.991,5.991,0,0,0-.648-4.372,14.248,14.248,0,0,1,3.076-4.21A19.754,19.754,0,0,1,42.579,5.076ZM28.492,6.534l-2.429,2.1a17.325,17.325,0,0,0-3.238,4.21h0a48.25,48.25,0,0,0-5.505.971A11.334,11.334,0,0,1,22.339,8.8a33.031,33.031,0,0,1,6.153-2.267ZM37.236,15.6a7.934,7.934,0,0,0-5.991,2.429,9.715,9.715,0,0,0-2.1,3.724l3.076.648a4.372,4.372,0,0,1,1.3-2.267c.971-.971,2.591-1.943,6.153-1.133l.648-3.076Zm-15.058.486a2.753,2.753,0,0,1,.81,2.591c-.162.971-1.133,2.914-1.781,4.857a9.391,9.391,0,0,0-.486,6.639,14.572,14.572,0,0,1,.486,1.943h-.324a7.124,7.124,0,0,0-.81-2.429A4.857,4.857,0,0,0,16.834,27.1a7.934,7.934,0,0,0-3.724.486c-.81-4.534-.162-7.124.648-8.581l1.3-1.457h0a39.831,39.831,0,0,1,7.124-1.457ZM42.9,21.592l-2.914,1.133,1.133,2.914A23.8,23.8,0,0,0,42.741,29.2a8.42,8.42,0,0,1-3.724-.81l-1.3,2.914a10.362,10.362,0,0,0,5.829.971,2.914,2.914,0,0,0,2.1-1.3,2.429,2.429,0,0,0,0-2.753,22.344,22.344,0,0,1-1.619-3.724Zm9.391,2.1H49.217A15.544,15.544,0,0,0,54.4,34.059a18.944,18.944,0,0,1,3.238,3.562h-.162A11.658,11.658,0,0,1,53.913,39.4a15.058,15.058,0,0,1-4.7.971h-.324a6.962,6.962,0,0,1,.162-.81L46.3,38.431a5.343,5.343,0,0,0-.486,2.1,3.886,3.886,0,0,0,.81,2.1,3.724,3.724,0,0,0,2.591.971,14.734,14.734,0,0,0,5.667-1.133,14.087,14.087,0,0,0,4.7-2.267,3.4,3.4,0,0,0,1.133-1.781,2.753,2.753,0,0,0-.162-2.267A18.3,18.3,0,0,0,56.5,31.63a12.306,12.306,0,0,1-4.21-7.934ZM14.244,33.25a6.639,6.639,0,0,0-2.1,6.153l3.076-.486a3.076,3.076,0,0,1,.971-3.238Zm28.173,9.391-1.943,2.429a17.325,17.325,0,0,0,12.144,3.4l-.486-3.076a13.439,13.439,0,0,1-9.715-2.753Zm16.515.162a9.877,9.877,0,0,1-5.181,2.591l.324,3.076A11.658,11.658,0,0,0,61.2,44.907ZM41.445,47.984l-3.076.971a6.962,6.962,0,0,0,3.562,3.886,11.982,11.982,0,0,0,4.7.81A20.077,20.077,0,0,0,52.617,53l-.648-2.914a19.429,19.429,0,0,1-5.181.486,8.258,8.258,0,0,1-3.562-.648A3.076,3.076,0,0,1,41.445,47.984Zm17.163,8.581,3.724,2.1,3.076,2.1.81.486c0,.81-.324,3.4-.648,5.667l-.648,3.238H59.256a3.724,3.724,0,0,0,1.781-2.1,20.077,20.077,0,0,0,.648-2.591,45.013,45.013,0,0,0,0-4.7,5.829,5.829,0,0,0-2.591-3.724h-.486Zm-38.7.648a18.3,18.3,0,0,0,2.753,4.372,26.554,26.554,0,0,0,8.1,6.477c.162.648.162,1.133.324,1.781a.486.486,0,0,1,.162.324H6.957l-1.781-4.21a8.42,8.42,0,0,1,1.781-1.133l5.505-3.4Zm36.269,2.1,1.457.324a1.943,1.943,0,0,1,.971,1.457,30.6,30.6,0,0,1,0,3.886,4.048,4.048,0,0,1-.324,1.619c-.162.486-.324.648-.486.648a8.258,8.258,0,0,1-4.048.324l-2.429-.486H45.493l-3.724,1.457A24.773,24.773,0,0,1,35.293,70h-.81c0-.162-.162-.324-.324-.971a31.735,31.735,0,0,1-.324-6.477h0A2.753,2.753,0,0,1,34,60.775l1.133-.486a8.9,8.9,0,0,1,4.534,1.133h0l6.153,2.753h2.429l.486-.486L52.455,61.1l2.1-1.133.971-.324h.162C55.694,59.318,55.856,59.318,56.18,59.318Zm-9.715,1.457Zm-19.268.81a12.629,12.629,0,0,0,3.562.648v.486h0v1.619A24.774,24.774,0,0,1,27.2,61.585Z" transform="translate(-2.1 -2)" fill="#fff"/>
      </g>
    </g>
  </g>
</svg>
