<svg xmlns="http://www.w3.org/2000/svg" width="50
" height="50" viewBox="0 0 78 77">
  <g id="jenkins" transform="translate(0.222 -0.416)">
    <g id="invisible_box" data-name="invisible box">
      <rect id="Rectangle_38" data-name="Rectangle 38" width="78" height="77" transform="translate(-0.222 0.416)" fill="none"/>
    </g>
    <g id="Q3_icons" data-name="Q3 icons" transform="translate(0.738 0.416)">
      <g id="surface1">
        <path id="Path_29" data-name="Path 29" d="M44.563,2C34.428,2,27.263,3.747,22.37,6.543A14.5,14.5,0,0,0,14.856,15.8a8.563,8.563,0,0,0-2.971,3.145c-1.573,2.446-2.1,6.466-.7,12.582A9.611,9.611,0,0,0,7.342,38,10.31,10.31,0,0,0,9.964,46.56a10.659,10.659,0,0,0,5.592,3.32c.7.175.7,0,1.223,0a38.793,38.793,0,0,0,3.145,8.737l-8.213,4.718L5.595,66.831l-2.1,1.4-.7.524-.349.349s-.349.175-.349.874V71.2l2.971,7.689H72.7l.349-1.4s.349-2.272.874-4.893a40.715,40.715,0,0,0,.7-7.165,2.1,2.1,0,0,0-.35-1.223l-.524-.524-1.4-1.048-3.495-2.272-3.495-2.1a26.561,26.561,0,0,0,3.495-6.291A51.026,51.026,0,0,0,72,28.561c-.7-9.786-4.019-16.6-9.087-20.795A26.911,26.911,0,0,0,46.311,2Zm1.223,3.32a23.241,23.241,0,0,1,15.028,5.068,20.969,20.969,0,0,1,5.417,7.165l-1.922-.524H59.417l.524,3.32a12.232,12.232,0,0,1,3.844,0,4.369,4.369,0,0,1,4.194,3.844h.175a15.726,15.726,0,0,1,.349,3.145,3.5,3.5,0,0,0-.7-1.4l-1.747-2.971-2.8,1.573a27.261,27.261,0,0,1,1.573,2.971,7.165,7.165,0,0,1,1.048,1.922,12.232,12.232,0,0,1-4.019-.7l-1.048,3.32a18.872,18.872,0,0,0,5.242.7,4.893,4.893,0,0,0,2.272-.524h.524a46.832,46.832,0,0,1-3.145,18.7,25.512,25.512,0,0,1-3.495,6.291h0a12.931,12.931,0,0,1-10.834,5.242c-7.864,0-15.028-3.67-17.3-6.116a12.232,12.232,0,0,1-2.8-5.767l-3.32.524a14.679,14.679,0,0,0,3.67,7.165,20.62,20.62,0,0,0,4.718,3.495A3.844,3.844,0,0,0,33.9,63.336a.7.7,0,0,0-.175.524,15.2,15.2,0,0,1-8.038-2.8,9.087,9.087,0,0,1-2.1-2.272v-.349a33.376,33.376,0,0,1-3.32-8.912,9.087,9.087,0,0,0,2.621-3.32l-2.971-1.573a8.388,8.388,0,0,1-1.4,2.1H18a2.8,2.8,0,0,1-1.573-.175,6.466,6.466,0,0,1-4.019-2.272,7.514,7.514,0,0,1-1.747-5.941,6.116,6.116,0,0,1,2.971-4.718h0A5.417,5.417,0,0,1,17.3,32.58a2.1,2.1,0,0,1,1.4,1.048,11.533,11.533,0,0,1,.874,3.495v2.621l6.64-3.32V35.376a13.281,13.281,0,0,0-.874-4.019,7.165,7.165,0,0,1,.524-4.893A37.221,37.221,0,0,0,27.788,20.7a6.466,6.466,0,0,0-.7-4.718,15.378,15.378,0,0,1,3.32-4.543A21.319,21.319,0,0,1,45.786,5.32Zm-15.2,1.573L27.962,9.165a18.7,18.7,0,0,0-3.495,4.543h0a52.074,52.074,0,0,0-5.941,1.048,12.232,12.232,0,0,1,5.417-5.417,35.648,35.648,0,0,1,6.64-2.446Zm9.436,9.786A8.563,8.563,0,0,0,33.554,19.3a10.485,10.485,0,0,0-2.272,4.019l3.32.7A4.718,4.718,0,0,1,36,21.571c1.048-1.048,2.8-2.1,6.64-1.223l.7-3.32ZM23.768,17.2a2.971,2.971,0,0,1,.874,2.8c-.175,1.048-1.223,3.145-1.922,5.242a10.135,10.135,0,0,0-.524,7.165,15.727,15.727,0,0,1,.524,2.1H22.37a7.689,7.689,0,0,0-.874-2.621A5.242,5.242,0,0,0,18,29.086a8.562,8.562,0,0,0-4.019.524c-.874-4.893-.175-7.689.7-9.262l1.4-1.573h0A42.987,42.987,0,0,1,23.768,17.2Zm22.367,5.941L42.99,24.367l1.223,3.145a25.687,25.687,0,0,0,1.747,3.844,9.087,9.087,0,0,1-4.019-.874l-1.4,3.145a11.184,11.184,0,0,0,6.291,1.048,3.145,3.145,0,0,0,2.272-1.4,2.621,2.621,0,0,0,0-2.971,24.115,24.115,0,0,1-1.747-4.019Zm10.135,2.272h-3.32A16.776,16.776,0,0,0,58.543,36.6a20.445,20.445,0,0,1,3.495,3.844h-.175a12.582,12.582,0,0,1-3.844,1.922,16.251,16.251,0,0,1-5.068,1.048H52.6a7.514,7.514,0,0,1,.175-.874l-2.971-1.223a5.767,5.767,0,0,0-.524,2.272,4.194,4.194,0,0,0,.874,2.272,4.019,4.019,0,0,0,2.8,1.048,15.9,15.9,0,0,0,6.116-1.223,15.2,15.2,0,0,0,5.068-2.446,3.67,3.67,0,0,0,1.223-1.922,2.971,2.971,0,0,0-.175-2.446,19.746,19.746,0,0,0-4.369-4.893,13.281,13.281,0,0,1-4.543-8.563ZM15.206,35.726a7.165,7.165,0,0,0-2.272,6.64l3.32-.524A3.32,3.32,0,0,1,17.3,38.347ZM45.612,45.861l-2.1,2.621a18.7,18.7,0,0,0,13.106,3.67l-.524-3.32a14.5,14.5,0,0,1-10.485-2.971Zm17.824.175a10.66,10.66,0,0,1-5.592,2.8l.349,3.32a12.582,12.582,0,0,0,7.689-3.844ZM44.563,51.628l-3.32,1.048a7.514,7.514,0,0,0,3.844,4.194,12.931,12.931,0,0,0,5.068.874,21.668,21.668,0,0,0,6.466-.7l-.7-3.145a20.969,20.969,0,0,1-5.592.524,8.912,8.912,0,0,1-3.844-.7A3.32,3.32,0,0,1,44.563,51.628Zm18.523,9.262,4.019,2.272,3.32,2.272.874.524c0,.874-.349,3.67-.7,6.116l-.7,3.495H63.785A4.019,4.019,0,0,0,65.707,73.3a21.668,21.668,0,0,0,.7-2.8,48.58,48.58,0,0,0,0-5.068,6.291,6.291,0,0,0-2.8-4.019h-.524Zm-41.764.7a19.746,19.746,0,0,0,2.971,4.718A28.658,28.658,0,0,0,33.03,73.3c.175.7.175,1.223.349,1.922a.524.524,0,0,1,.175.349H7.342L5.42,71.024A9.086,9.086,0,0,1,7.342,69.8l5.941-3.67ZM60.465,63.86l1.573.349a2.1,2.1,0,0,1,1.048,1.573,33.028,33.028,0,0,1,0,4.194,4.369,4.369,0,0,1-.349,1.747c-.175.524-.349.7-.524.7a8.912,8.912,0,0,1-4.369.349l-2.621-.524H48.932L44.913,73.82a26.736,26.736,0,0,1-6.99,1.573h-.874c0-.175-.175-.349-.349-1.048a34.25,34.25,0,0,1-.349-6.99h0a2.971,2.971,0,0,1,.175-1.922l1.223-.524a9.611,9.611,0,0,1,4.893,1.223h0l6.64,2.971H51.9l.524-.524,4.019-2.8,2.272-1.223,1.048-.349h.175C59.941,63.86,60.116,63.86,60.465,63.86ZM49.98,65.433Zm-20.795.874a13.63,13.63,0,0,0,3.844.7v.524h0v1.747a26.737,26.737,0,0,1-3.844-2.971Z" transform="translate(-2.1 -2)" fill="#121b18"/>
      </g>
    </g>
  </g>
</svg>
