<?xml version="1.0" encoding="utf-8"?>
<svg version="1.1" id="Layer_1" xmlns="http://www.w3.org/2000/svg" xmlns:xlink="http://www.w3.org/1999/xlink" x="0px" y="0px"
	 viewBox="0 0 700 700" style="enable-background:new 0 0 700 700;" xml:space="preserve">
<style type="text/css">
	.st0{fill:#FFFFFF;}
</style>
<g id="Layer_1_1_">
</g>
<g id="Layer_2_1_">
	<g>
		<circle class="st0" cx="241.3" cy="302.7" r="20.1"/>
		<g>
			<g>
				<path class="st0" d="M448.3,262.4c7.4-12.1,14.9-24.2,22.3-36.3c9.5-15.5,17.2-28.7,30.4-40.8c1.1-1,2.2-2,3.3-2.9
					c0.4-0.3,4.1-3.3,2.1-1.7c2.5-1.9,5.1-3.7,7.8-5.4c2.3-1.4,4.6-2.7,6.9-4c1.3-0.7,2.7-1.3,4-2c0.9-0.4,4.5-1.9,1.8-0.8
					c5.1-2,10.2-3.7,15.6-4.9c2.5-0.6,5-1,7.5-1.5c0.5-0.1,1-0.1,1.5-0.2c1.9-0.3-2.5,0.2-0.6,0.1c1.5-0.1,3-0.3,4.4-0.4
					c4.8-0.4,9.6-0.5,14.4-0.3c2.3,0.1,4.7,0.2,7,0.5c1.1,0.1,2.1,0.2,3.2,0.3c0.6,0.1,1.2,0.2,1.8,0.2c-1.3-0.2-2.5-0.4-0.5,0
					c8.2,1.3,16.2,3.1,24.2,5.5c3.6,1.1,7.2,2.4,10.7,3.7c0.8,0.3,1.6,0.7,2.5,1c0.7,0.3,3.2,1.3,0.7,0.3c-2.5-1,1.5,0.7,2.4,1.1
					c2.5,1.1,4.9,2.3,7.3,3.6c-1.6-6.2-3.2-12.3-4.8-18.4c-14.6,22.9-29.2,45.7-43.8,68.6c-23.3,36.5-46.5,73-69.8,109.4
					c-5.3,8.4-10.7,16.8-16.1,25.2c-2.6,4-2.3,9.5,0,13.6c14,23.9,27.9,47.9,41.9,71.8c22.2,38.1,44.5,76.2,66.6,114.3
					c5,8.7,10.1,17.3,15.2,26c0.7-5.4,1.4-10.9,2.1-16.3c-7.3,6.3-15,11.8-23.9,16.5c-2,1-4,2-6.1,3c-3.8,1.7,1.3-0.5-1,0.4
					c-1,0.4-2,0.8-3,1.1c-3.8,1.3-7.6,2.4-11.5,3.2c-0.9,0.2-6.5,1-3.1,0.6c-1.8,0.2-3.6,0.4-5.4,0.5c-3.5,0.2-7,0.1-10.4-0.2
					c-1-0.1-2-0.2-3-0.3c0.4,0,3,0.5,0.6,0.1c-1.6-0.3-3.2-0.6-4.8-0.9c-3.1-0.7-6.2-1.6-9.2-2.7c-1.5-0.5-2.9-1.1-4.4-1.7
					c3.6,1.3-1-0.5-1.8-0.9c-2.7-1.3-5.3-2.7-7.9-4.2c-2.5-1.5-4.8-3-7.2-4.7c-1-0.7-2-1.5-3-2.2c-1.5-1.1,2.6,2.2,0.5,0.4
					c-0.6-0.5-1.2-1-1.8-1.5c-6.5-5.3-12.4-11.3-17.7-17.7c-1.5-1.8-2.9-4-0.4-0.4c-0.4-0.6-0.9-1.2-1.3-1.8
					c-0.4-0.6-0.7-1.2-1.1-1.8c-4.5-7.8-8.8-15.8-13.2-23.7c-20.1-36-40.3-72-60.5-107.9c-12.5-22.2-25-44.3-37.5-66.4
					c-10.9-19.3-21.3-38.7-35.2-56c-20.1-25-46.8-44.8-76.2-57.5C242.1,232.8,212,226.4,181,226c-40.5-0.6-81-1.2-121.4-1.8
					c-1.2,0-2.3,0-3.5,0c0,9,0,18,0,26.9c1.3,0,2.6,0.1,3.8,0.2c1.5,0.1,2.9,0.2,4.3,0.4c0.9,0.1,1.8,0.2,2.7,0.3
					c2.5,0.3-3.3-0.5-1.7-0.2c0.5,0.1,1,0.2,1.6,0.2c11.5,1.7,22.9,4.7,33.8,8.9c0.8,0.3,1.6,0.6,2.4,1c2.2,0.9,0.9,0.7-0.5-0.2
					c1.6,1.1,3.8,1.7,5.6,2.5c3.4,1.6,6.8,3.3,10,5.2c3.5,2,7,4.2,10.4,6.6c1.6,1.1,3.1,2.3,4.7,3.4c-3.3-2.3-0.4-0.3,0.3,0.3
					c0.9,0.7,1.8,1.5,2.7,2.3c3.4,2.9,6.7,6,9.8,9.3c1.6,1.7,3.1,3.3,4.5,5c0.8,0.9,1.5,1.8,2.2,2.7c0.3,0.3,0.5,0.7,0.8,1
					c1.1,1.2-1.7-2.3-0.2-0.3c6.1,8.5,11.5,17.3,15.8,26.8c0.3,0.6,0.5,1.2,0.8,1.8c-0.2-0.4-1.1-2.7-0.2-0.4
					c0.5,1.1,0.9,2.3,1.3,3.4c1.1,2.8,2.1,5.7,3,8.6c1.9,6,3.5,12.1,4.7,18.2c0.6,3,1.2,6,1.6,9c0.1,0.6,0.8,5.4,0.4,2.7
					c0.3,2.2,0.5,4.3,0.7,6.4c0.7,7.3,1.1,14.7,1.2,22c0.3,25,4.4,50.1,16.8,72c19.7,34.7,57,53,95.4,58.5
					c30.9,4.4,62.2,2.8,92.9-2.7c1.9-0.3,3.8-0.7,5.8-1.1c7.1-1.4,11.2-9.9,9.4-16.6c-2-7.4-9.4-10.8-16.6-9.4
					c-4.4,0.9-8.8,1.7-13.3,2.3c-1.4,0.2-2.8,0.4-4.2,0.6c-2.8,0.4,3.7-0.5,0.8-0.1c-0.8,0.1-1.7,0.2-2.6,0.3
					c-3.3,0.4-6.6,0.8-9.9,1c-16,1.5-32,1.7-48,0.3c-2.1-0.2-4.3-0.4-6.4-0.7c-3.4-0.4,1.5,0.2-0.4,0c-1.2-0.2-2.4-0.3-3.6-0.5
					c-4.3-0.7-8.5-1.5-12.8-2.5c-4.4-1-8.7-2.2-13-3.7c-1.9-0.7-3.8-1.3-5.8-2.1c-1-0.4-2-0.8-3-1.2c-1.7-0.6,2.5,1.2,1,0.4
					c-0.6-0.3-1.2-0.5-1.8-0.8c-4-1.8-7.8-3.8-11.5-6.1c-1.9-1.1-3.7-2.3-5.5-3.5c-0.9-0.6-1.8-1.3-2.7-1.9
					c-0.7-0.5-1.9-1.6,0.8,0.6c-0.5-0.4-1.1-0.8-1.6-1.3c-3.5-2.9-6.9-6-10-9.4c-1.4-1.6-2.7-3.3-4.2-4.8c-1.2-1.3,1.5,2.2,0.5,0.7
					c-0.3-0.5-0.7-0.9-1-1.4c-0.8-1.1-1.5-2.2-2.2-3.2c-2.7-4-5-8.3-7-12.7c-0.5-1.1-1.6-4-0.5-1.2c-0.5-1.2-1-2.4-1.4-3.6
					c-1-2.7-1.8-5.4-2.6-8.1c-1.6-5.7-2.8-11.5-3.7-17.4c0.5,3-0.2-1.3-0.2-2.2c-0.2-1.4-0.3-2.8-0.4-4.2c-0.3-3.5-0.4-7-0.5-10.5
					c-0.5-27.3-3.4-54.9-13.7-80.5c-14.6-36.5-41.6-66.2-77.7-82.3c-19-8.5-40.6-15-61.6-15.2c-0.3,0-0.6,0-0.9,0
					c-7.3-0.1-13.5,6.2-13.5,13.5c0,7.4,6.2,13.3,13.5,13.5c38.4,0.6,76.8,1.2,115.2,1.7c7.7,0.1,15.4,0,23,0.5
					c3.3,0.2,6.6,0.5,9.9,0.9c1.4,0.2,4.6-0.2,0,0c0.9,0,2,0.3,2.9,0.4c2.4,0.4,4.8,0.8,7.2,1.2c11.2,2.1,22.2,5,32.9,8.8
					c3.1,1.1,6.2,2.3,9.2,3.5c0.6,0.3,1.2,0.5,1.8,0.8c-3.2-1.3,0,0,0.5,0.3c1.6,0.7,3.2,1.4,4.7,2.2c6.7,3.2,13.3,6.7,19.6,10.7
					c3.1,1.9,6.1,3.9,9.1,6c1.6,1.1,3.2,2.3,4.8,3.4c3.1,2.2-1.2-1,0.6,0.4c1.1,0.9,2.2,1.7,3.3,2.7c6.5,5.3,12.5,11,18.2,17.2
					c2.8,3.1,5.6,6.2,8.2,9.5c0.7,0.9,1.4,1.8,2.1,2.7c-1.2-1.5,0.2,0.3,0.4,0.5c1.6,2.3,3.3,4.5,4.8,6.8c6.1,9,11.3,18.5,16.6,28
					c12.5,22.1,25,44.2,37.5,66.4c21.5,38,42.8,76.1,64.2,114.3c7,12.5,13.1,26,21.9,37.3c11.8,15.2,27.3,28.5,44.7,36.8
					c13.3,6.4,27.6,10.3,42.4,10.3c17.7,0,34.9-5.4,50.3-13.9c9.7-5.4,18.5-12.2,26.9-19.3c4.5-3.8,5-11.4,2.1-16.3
					c-14-23.9-27.9-47.9-41.9-71.8c-22.2-38.1-44.5-76.2-66.6-114.3c-5-8.7-10.1-17.3-15.2-26c0,4.5,0,9.1,0,13.6
					c14.6-22.9,29.2-45.7,43.8-68.6c23.3-36.5,46.5-73,69.8-109.4c5.3-8.4,10.7-16.8,16.1-25.2c3.9-6.1,1.3-15-4.8-18.4
					c-23.7-13.3-53.2-20.4-80.2-19.8c-24.3,0.5-48.7,7.8-68.3,22.4c-17.8,13.2-30.6,30.1-42,48.7c-8.9,14.5-17.8,29-26.7,43.4
					c-3.8,6.2-1.3,14.8,4.8,18.4C436.3,271,444.5,268.6,448.3,262.4L448.3,262.4z"/>
			</g>
		</g>
		<g>
			<g>
				<path class="st0" d="M210.8,436.7c-0.8-5.2-1.4-10.4-1.6-16.4c-0.1-2.6-0.1-5.2,0-7.7c0-1.2,0.1-2.5,0.2-3.7
					c0-0.5,0.5-4.3,0.2-2.3c0.6-4.4,1.6-8.7,3.1-12.9c0.1-0.3,1.2-3.2,0.7-2c-0.5,1.2,0.5-1.2,0.7-1.5c0.9-1.9,1.9-3.8,3.1-5.5
					c0.5-0.8,1-1.5,1.5-2.3c0.9-1.3-1.2,1.2,0.6-0.7c1.2-1.3,2.3-2.7,3.6-3.9c0.6-0.6,1.3-1.2,2-1.8c0.7-0.6,2.3-1.8,0.6-0.6
					c1.6-1.2,3.2-2.3,4.9-3.3c1.4-0.8,2.9-1.7,4.4-2.3c0.3-0.2,3-1.3,1.6-0.8c-1.2,0.5,1.5-0.6,2-0.8c3.7-1.3,7.4-2.3,11.2-3.1
					c1-0.2,1.9-0.3,2.8-0.5c0.5-0.1,1-0.2,1.5-0.2c1.4-0.2-1.8,0.2-0.4,0c2.1-0.2,4.2-0.5,6.3-0.6c4.2-0.3,8.5-0.3,12.7-0.2
					c4.4,0.2,8.8,0.6,13.2,1.1c0.4,0,1.9,0.3-0.2,0c0.5,0.1,1.1,0.2,1.6,0.2c1.1,0.2,2.2,0.3,3.2,0.5c2.2,0.3,4.3,0.8,6.5,1.2
					c9,1.8,17.8,4.2,26.4,7.2c4.3,1.4,8.5,3,12.6,4.7c0.5,0.2,1,0.4,1.5,0.6c1.3,0.5-1.4-0.6-0.1,0c1,0.4,2,0.8,2.9,1.3
					c2,0.9,4,1.8,6,2.8c8,3.8,15.7,8.2,23,13.2c0.7,0.5,1.4,1,2.1,1.5c0.6,0.4,3.3,2.5,1,0.8c1.4,1.1,2.8,2.2,4.1,3.4
					c2.5,2.2,4.9,4.6,7,7.2c3.3,4,10.2,3.4,13.6,0c4-4,3.3-9.6,0-13.6c-9.7-11.7-23.7-20.2-37.1-27c-17.2-8.8-35.6-15.5-54.4-19.7
					c-34-7.5-78.5-8.9-102.1,21.7c-15.5,20.2-15.5,47.2-11.5,71.2c0.8,5.1,7.2,8,11.8,6.7C209.5,447,211.6,441.8,210.8,436.7
					L210.8,436.7z"/>
			</g>
		</g>
		<path class="st0" d="M110.9,250.4c0,0,98.9,46.4,84.2,137.7c0,0,61.9-66.8,183.6,0c0,0-30.4-112.6-137.5-139.8
			C241.3,248.4,131.8,227.6,110.9,250.4z"/>
	</g>
</g>
</svg>
