<svg xmlns="http://www.w3.org/2000/svg" xmlns:xlink="http://www.w3.org/1999/xlink" width="600" height="600" viewBox="0 0 600 600">
  <defs>
    <clipPath id="clip-kreeck_light_logo">
      <rect width="600" height="600"/>
    </clipPath>
  </defs>
  <g id="kreeck_light_logo" clip-path="url(#clip-kreeck_light_logo)">
    <g id="Layer_2" transform="translate(-250 -249.564)">
      <g id="Group_10" data-name="Group 10" transform="translate(250 327.571)">
        <ellipse id="Ellipse_23" data-name="Ellipse 23" cx="19.904" cy="19.824" rx="19.904" ry="19.824" transform="translate(176.623 146.078)" fill="#fff"/>
        <g id="Group_7" data-name="Group 7">
          <g id="Group_6" data-name="Group 6">
            <path id="Path_57" data-name="Path 57" d="M651.387,453.712Q662.4,435.8,673.46,417.93c9.438-15.313,17.012-28.239,30.1-40.179,1.065-.985,2.169-1.933,3.273-2.881.419-.341,4.034-3.222,2.055-1.706a89.709,89.709,0,0,1,7.725-5.307c2.245-1.4,4.529-2.691,6.85-3.9,1.294-.682,2.626-1.327,3.958-1.933.875-.417,4.453-1.857,1.789-.834a113.464,113.464,0,0,1,15.413-4.814c2.436-.569,4.909-1.023,7.421-1.44.495-.076.99-.114,1.484-.228,1.9-.341-2.512.189-.609.076,1.446-.076,2.93-.3,4.376-.417a119.575,119.575,0,0,1,14.271-.265c2.283.076,4.6.227,6.888.455,1.066.076,2.093.19,3.121.3.609.076,1.18.152,1.789.227-1.294-.152-2.512-.379-.495-.038a166.467,166.467,0,0,1,23.9,5.458c3.577,1.1,7.117,2.35,10.618,3.677.8.3,1.6.644,2.436.948.647.265,3.121,1.289.647.265-2.436-1.023,1.446.644,2.359,1.061,2.436,1.1,4.871,2.236,7.193,3.525-1.6-6.065-3.2-12.092-4.8-18.156q-21.635,33.83-43.309,67.621-34.537,53.9-69.036,107.838c-5.29,8.3-10.618,16.564-15.908,24.865a13.165,13.165,0,0,0,0,13.38Q717.7,600.894,738.424,636.3q33,56.344,65.953,112.651c4.986,8.529,10.009,17.1,14.995,25.623.685-5.345,1.37-10.727,2.093-16.071a124.115,124.115,0,0,1-23.634,16.261c-1.979,1.023-3.958,1.971-6.013,2.919-3.768,1.706,1.294-.493-.951.379-.951.379-1.941.758-2.93,1.1a85.973,85.973,0,0,1-11.379,3.184c-.875.189-6.393.986-3.044.606-1.789.189-3.578.379-5.366.455a78.065,78.065,0,0,1-10.314-.152c-.99-.076-1.979-.189-3.007-.3.381.038,3.007.493.609.076-1.6-.3-3.2-.568-4.8-.91a78.149,78.149,0,0,1-9.134-2.615c-1.446-.493-2.892-1.1-4.339-1.63,3.577,1.327-.951-.455-1.789-.872-2.664-1.289-5.252-2.654-7.8-4.17-2.436-1.44-4.8-2.994-7.117-4.624-.99-.72-1.979-1.478-2.968-2.16-1.522-1.061,2.588,2.123.495.379l-1.827-1.478a127.148,127.148,0,0,1-17.544-17.474c-1.446-1.744-2.854-3.942-.381-.417-.418-.607-.913-1.137-1.294-1.744-.38-.569-.723-1.175-1.1-1.781-4.453-7.733-8.715-15.541-13.092-23.311Q652.891,667,622.845,613.9q-18.5-32.749-37.106-65.423c-10.808-18.99-21.046-38.132-34.784-55.189-19.9-24.676-46.277-44.121-75.429-56.629a232.258,232.258,0,0,0-88.6-18.839L266.783,416c-1.142,0-2.321-.038-3.463-.038v26.533c1.256,0,2.55.076,3.806.19,1.446.114,2.854.227,4.3.379.875.076,1.789.227,2.664.3,2.512.265-3.273-.493-1.713-.227.495.076,1.028.152,1.56.227a162.541,162.541,0,0,1,33.49,8.756c.8.3,1.6.607,2.4.948,2.207.872.875.682-.457-.227,1.6,1.061,3.768,1.63,5.518,2.464,3.387,1.592,6.7,3.3,9.933,5.155q5.252,3.014,10.275,6.482c1.56,1.1,3.083,2.236,4.6,3.336-3.235-2.312-.419-.3.343.3.913.72,1.827,1.478,2.7,2.236a130.117,130.117,0,0,1,9.7,9.173c1.56,1.63,3.045,3.3,4.491,4.965.761.872,1.446,1.744,2.207,2.615l.8,1.023c1.066,1.213-1.636-2.236-.228-.265a151.471,151.471,0,0,1,15.641,26.419l.8,1.819c-.19-.379-1.065-2.653-.152-.379.457,1.1.913,2.236,1.332,3.336,1.066,2.8,2.055,5.61,2.968,8.491a173.091,173.091,0,0,1,4.681,17.967c.609,2.919,1.142,5.875,1.6,8.832.076.569.761,5.306.419,2.615.266,2.123.495,4.207.723,6.33.723,7.2,1.066,14.442,1.18,21.681.3,24.6,4.339,49.351,16.669,70.995,19.485,34.227,56.439,52.27,94.381,57.652,30.6,4.359,61.576,2.8,91.946-2.616,1.9-.341,3.806-.682,5.709-1.061,7.041-1.4,11.113-9.742,9.286-16.337-2.017-7.315-9.324-10.689-16.4-9.249-4.377.872-8.753,1.63-13.13,2.312-1.37.227-2.74.417-4.148.606-2.778.417,3.653-.455.8-.114-.837.114-1.713.228-2.55.341-3.273.379-6.546.758-9.819,1.023a261.573,261.573,0,0,1-47.5.265c-2.093-.189-4.224-.417-6.317-.644-3.387-.379,1.446.227-.419-.038-1.18-.189-2.359-.341-3.577-.531-4.224-.682-8.449-1.478-12.635-2.464-4.339-1.023-8.6-2.2-12.825-3.6q-2.854-.967-5.708-2.047c-.99-.379-1.979-.8-3.007-1.175-1.636-.606,2.512,1.137.951.379-.609-.3-1.218-.531-1.827-.834a109.008,109.008,0,0,1-11.417-5.989c-1.865-1.1-3.653-2.274-5.442-3.487-.875-.607-1.751-1.251-2.626-1.9-.647-.455-1.9-1.554.761.607l-1.6-1.251A95.141,95.141,0,0,1,438.572,659c-1.408-1.554-2.7-3.222-4.11-4.776-1.142-1.289,1.484,2.122.533.682-.3-.493-.685-.91-1.028-1.365-.761-1.061-1.484-2.123-2.207-3.184a95.95,95.95,0,0,1-6.964-12.546c-.495-1.1-1.6-3.9-.533-1.137-.457-1.175-.951-2.388-1.37-3.563-.951-2.615-1.827-5.306-2.588-8a139.042,139.042,0,0,1-3.615-17.171c.457,2.994-.152-1.289-.228-2.123-.152-1.365-.266-2.729-.381-4.094-.266-3.449-.419-6.9-.495-10.348-.533-26.95-3.349-54.089-13.51-79.3-14.462-35.933-41.178-65.271-76.875-81.115-18.762-8.339-40.188-14.821-60.967-15.01-.3,0-.609-.038-.913-.038a13.267,13.267,0,1,0,0,26.533L377.3,444.159c7.573.114,15.223,0,22.758.493q4.909.341,9.819.91c1.408.152,4.567-.227.038,0a14.828,14.828,0,0,1,2.854.417c2.4.379,4.8.758,7.155,1.213A215.018,215.018,0,0,1,452.5,455.91c3.045,1.061,6.089,2.236,9.058,3.449.609.265,1.218.493,1.827.758-3.2-1.327-.038,0,.533.265,1.56.682,3.121,1.4,4.681,2.123A199.438,199.438,0,0,1,488.009,473c3.045,1.9,6.051,3.828,8.981,5.913,1.6,1.1,3.121,2.274,4.719,3.374,3.044,2.2-1.218-.986.571.417,1.1.872,2.169,1.706,3.235,2.615a185.179,185.179,0,0,1,18.039,16.905q4.225,4.548,8.106,9.324c.685.872,1.408,1.744,2.093,2.616-1.142-1.478.228.341.381.531,1.6,2.236,3.235,4.435,4.8,6.709,6.051,8.832,11.151,18.27,16.441,27.556q18.61,32.693,37.144,65.423Q624.367,670.619,655.992,727c6.926,12.281,12.939,25.585,21.693,36.729,11.722,14.934,27.021,28.049,44.222,36.275,13.168,6.292,27.325,10.158,41.977,10.158,17.468.038,34.556-5.307,49.741-13.721a162.58,162.58,0,0,0,26.6-19.066c4.415-3.79,4.909-11.258,2.093-16.071Q821.6,725.94,800.875,690.537q-33-56.345-65.953-112.651c-4.985-8.529-10.009-17.1-14.995-25.623v13.38q21.636-33.83,43.309-67.621,34.537-53.9,69.035-107.838c5.29-8.3,10.618-16.564,15.908-24.865,3.844-5.989,1.294-14.745-4.8-18.156C819.942,334.009,790.752,327.035,764,327.6c-24.09.531-48.142,7.695-67.589,22.06-17.582,12.963-30.293,29.641-41.6,48.025q-13.187,21.378-26.412,42.794c-3.768,6.1-1.332,14.593,4.8,18.156a13.718,13.718,0,0,0,18.191-4.927Z" transform="translate(-250 -327.571)" fill="#fff"/>
          </g>
        </g>
        <g id="Group_9" data-name="Group 9" transform="translate(145.795 206.985)">
          <g id="Group_8" data-name="Group 8">
            <path id="Path_58" data-name="Path 58" d="M308.862,473.116a122.8,122.8,0,0,1-1.6-16.147c-.076-2.539-.076-5.079.038-7.619.038-1.213.114-2.426.228-3.6.038-.493.495-4.245.19-2.236a66.745,66.745,0,0,1,3.045-12.736c.114-.341,1.18-3.108.723-1.971-.495,1.175.533-1.137.685-1.479a47.687,47.687,0,0,1,3.045-5.458c.495-.758,1.028-1.478,1.522-2.236.875-1.289-1.142,1.213.571-.72,1.142-1.327,2.321-2.616,3.577-3.828.609-.606,1.256-1.175,1.941-1.743.647-.569,2.283-1.82.609-.569a51.858,51.858,0,0,1,4.871-3.26,48.151,48.151,0,0,1,4.377-2.312c.3-.152,2.93-1.289,1.6-.758-1.142.493,1.522-.569,2.017-.758a79.705,79.705,0,0,1,11.075-3.032c.951-.19,1.865-.341,2.816-.493.457-.076.951-.152,1.446-.227,1.37-.227-1.751.189-.381.038,2.093-.227,4.148-.455,6.241-.568,4.186-.265,8.411-.3,12.6-.152,4.339.152,8.677.568,13.015,1.061.419.038,1.865.266-.152-.038l1.6.228c1.066.152,2.131.341,3.2.493,2.131.341,4.3.758,6.432,1.175a214.5,214.5,0,0,1,26.145,7.05c4.224,1.4,8.373,2.956,12.483,4.624.495.19.99.417,1.484.607,1.332.531-1.408-.607-.076-.038.951.417,1.941.834,2.892,1.251,2.017.872,4,1.782,5.975,2.729a168.845,168.845,0,0,1,22.758,13.039c.685.493,1.408.986,2.093,1.479.571.417,3.235,2.5,1.028.758,1.37,1.1,2.74,2.2,4.072,3.374a63.876,63.876,0,0,1,6.926,7.05c3.273,3.942,10.047,3.373,13.472,0,3.92-3.9,3.273-9.438,0-13.418-9.59-11.561-23.443-19.938-36.687-26.647A226.747,226.747,0,0,0,402.9,386.657c-33.642-7.429-77.712-8.794-101,21.416-15.375,19.938-15.3,46.471-11.379,70.161.837,5.041,7.117,7.884,11.721,6.633,5.366-1.592,7.459-6.709,6.622-11.75Z" transform="translate(-288.31 -382.179)" fill="#fff"/>
          </g>
        </g>
        <path id="Path_59" data-name="Path 59" d="M267.74,365.5s97.883,45.751,83.307,135.735c0,0,61.234-65.8,181.684,0,0,0-30.1-110.946-136.016-137.744C396.753,363.533,288.405,342.989,267.74,365.5Z" transform="translate(-200.227 -251.152)" fill="#fff"/>
      </g>
    </g>
  </g>
</svg>
