<svg xmlns="http://www.w3.org/2000/svg" width="50" height="77" viewBox="0 0 76.992 77">
  <path id="kubernetes" d="M25.055,78a6.06,6.06,0,0,1-4.807-2.371L2.351,52.684A6.325,6.325,0,0,1,1.174,47.3L7.582,18.666A6.192,6.192,0,0,1,10.909,14.4L36.842,1.638A5.778,5.778,0,0,1,39.509,1a5.842,5.842,0,0,1,2.668.633L68.1,14.343a6.2,6.2,0,0,1,3.333,4.274l6.408,28.639a6.52,6.52,0,0,1-1.177,5.379L58.748,75.613A6.254,6.254,0,0,1,53.936,78H25.061ZM67.5,45.908l.171.044a1.684,1.684,0,1,1-.748,3.267H66.9l-.017-.006-.016-.006-.165-.038-.275-.055a14.016,14.016,0,0,1-1.507-.583,15.784,15.784,0,0,0-2.932-.858,1.331,1.331,0,0,0-.94.346q-.359-.068-.72-.126a21.846,21.846,0,0,1-9.7,12.166,7.289,7.289,0,0,0,.281.676,1.314,1.314,0,0,0-.127.99,15.4,15.4,0,0,0,1.491,2.662,13.619,13.619,0,0,1,.9,1.342l.154.314.066.137a1.688,1.688,0,1,1-3.042,1.43L50.3,67.5l-.154-.319a14,14,0,0,1-.49-1.54A15.593,15.593,0,0,0,48.5,62.826a1.331,1.331,0,0,0-.858-.522q-.083-.145-.165-.291l-.192-.352a21.835,21.835,0,0,1-15.532-.039l-.379.688a1.37,1.37,0,0,0-.726.352,11.74,11.74,0,0,0-1.3,3.014,13.888,13.888,0,0,1-.484,1.54l-.138.275-.072.149v.006a1.689,1.689,0,1,1-3.042-1.436l.077-.165.143-.286a13,13,0,0,1,.9-1.342,16.545,16.545,0,0,0,1.524-2.728,1.661,1.661,0,0,0-.154-.951L28.41,60a21.846,21.846,0,0,1-9.7-12.078l-.737.127A1.87,1.87,0,0,0,17,47.712a15.8,15.8,0,0,0-2.932.858,15.171,15.171,0,0,1-1.507.577l-.275.06-.165.039h-.016l-.011.011H12.07a1.684,1.684,0,1,1-.748-3.267l.022-.006h.016l.033-.011c.132-.033.3-.077.418-.1a14.35,14.35,0,0,1,1.612-.127,16.394,16.394,0,0,0,3.02-.5,2.321,2.321,0,0,0,.72-.731l.7-.2A21.659,21.659,0,0,1,21.3,29.182l-.533-.479a1.859,1.859,0,0,0-.341-.968,15.7,15.7,0,0,0-2.5-1.754,14.065,14.065,0,0,1-1.4-.814q-.178-.131-.346-.275l-.022-.022a1.776,1.776,0,0,1-.418-2.475,1.622,1.622,0,0,1,1.342-.589,2.008,2.008,0,0,1,1.172.44l.121.093c.088.072.187.143.253.2a14.884,14.884,0,0,1,1.111,1.172A15.675,15.675,0,0,0,22,25.761a1.32,1.32,0,0,0,1,.1l.605.429a21.659,21.659,0,0,1,14.036-6.732l.038-.71a1.826,1.826,0,0,0,.55-.864,15.642,15.642,0,0,0-.187-3.047,14.052,14.052,0,0,1-.231-1.595v-.473a1.691,1.691,0,1,1,3.366-.005v.478a13.917,13.917,0,0,1-.225,1.595,15.675,15.675,0,0,0-.193,3.042,1.331,1.331,0,0,0,.55.841v.039l.038.715A22.065,22.065,0,0,1,55.322,26.3l.638-.457a1.87,1.87,0,0,0,1.023-.11,15.4,15.4,0,0,0,2.266-2.052,13.915,13.915,0,0,1,1.111-1.172l.281-.22.093-.077a1.691,1.691,0,1,1,2.1,2.629.8.8,0,0,0-.138.11l-.236.181a14.02,14.02,0,0,1-1.4.814,15.758,15.758,0,0,0-2.5,1.76,1.32,1.32,0,0,0-.319.946q-.137.122-.275.242l-.319.292a21.757,21.757,0,0,1,3.5,15.1l.676.2a1.88,1.88,0,0,0,.726.726,15.639,15.639,0,0,0,3.025.495,14.369,14.369,0,0,1,1.606.132l.319.072ZM51.692,28.858,44.5,33.945l-.022-.011a1.485,1.485,0,0,1-2.365-1.127V32.8l-.5-8.789a17.507,17.507,0,0,1,10.082,4.851ZM38.145,38.5h2.706l1.683,2.1-.6,2.618L39.5,44.373,37.062,43.2l-.605-2.613,1.689-2.1ZM35.593,24.32a17.687,17.687,0,0,1,1.793-.308l-.495,8.8-.044.022a1.487,1.487,0,0,1-2.354,1.133l-.011.005-7.238-5.115A17.409,17.409,0,0,1,35.593,24.32ZM24.626,32.147l6.606,5.891-.006.039a1.479,1.479,0,0,1-.583,2.541l-.006.028-8.47,2.436a17.237,17.237,0,0,1,2.459-10.934ZM33.47,47.8,30.1,55.907a17.38,17.38,0,0,1-6.985-8.723L31.8,45.715l.016.016a1.457,1.457,0,0,1,.99.16,1.485,1.485,0,0,1,.644,1.876l.022.033ZM43.4,58.228a17.526,17.526,0,0,1-9.493-.484l4.274-7.7h.005a1.485,1.485,0,0,1,2.613-.006h.033l4.285,7.711q-.846.281-1.716.479Zm5.522-2.288-3.4-8.189.005-.017A1.479,1.479,0,0,1,47.16,45.7l.016-.022,8.762,1.48a17.308,17.308,0,0,1-7.013,8.784Zm7.931-12.887-8.5-2.448-.011-.033a1.478,1.478,0,0,1-.577-2.546l-.016-.011,6.573-5.869a17.562,17.562,0,0,1,2.53,10.907Z" transform="translate(-1 -1)" fill="#121b18" fill-rule="evenodd"/>
</svg>
