<svg xmlns="http://www.w3.org/2000/svg" width="60.128" height="60.129" viewBox="0 0 75.128 75.129">
  <path id="leadership-alt" d="M12.522,59.475a7.826,7.826,0,1,1,7.826-7.826A7.833,7.833,0,0,1,12.522,59.475Zm32.868-7.826a7.826,7.826,0,1,0-7.826,7.826A7.825,7.825,0,0,0,45.389,51.649Zm-7.826-36a7.826,7.826,0,1,0-7.826-7.826A7.825,7.825,0,0,0,37.564,15.651Zm17.216,36a7.826,7.826,0,1,0,7.826-7.826A7.825,7.825,0,0,0,54.78,51.649Zm-4.7-25.271V37.231a3.127,3.127,0,0,1-4.839,2.62,14.275,14.275,0,0,0-15.36,0,3.129,3.129,0,0,1-4.839-2.62V26.379A21.852,21.852,0,0,1,19.3,22.9L2.658,8.636A3.129,3.129,0,1,1,6.734,3.888L23.371,18.149a15.687,15.687,0,0,0,10.186,3.766h8.017A15.673,15.673,0,0,0,51.76,18.146L68.394,3.888a3.129,3.129,0,1,1,4.076,4.749L55.832,22.9a21.88,21.88,0,0,1-5.747,3.481ZM74.924,70.888a13.3,13.3,0,0,0-24.635,0,3.131,3.131,0,0,0,2.927,4.242H72a3.131,3.131,0,0,0,2.927-4.242Zm-37.36-8.283a13.133,13.133,0,0,0-12.318,8.283,3.131,3.131,0,0,0,2.927,4.242H46.955a3.131,3.131,0,0,0,2.927-4.242,13.137,13.137,0,0,0-12.318-8.283Zm-25.042,0A13.133,13.133,0,0,0,.2,70.888a3.131,3.131,0,0,0,2.927,4.242H21.912a3.131,3.131,0,0,0,2.927-4.242A13.137,13.137,0,0,0,12.522,62.605Z" transform="translate(0)" fill="#fff"/>
</svg>
