<svg xmlns="http://www.w3.org/2000/svg" width="70.8" height="70.13" viewBox="0 0 92.8 75.13">
  <g id="product" transform="translate(-1.002 -4)">
    <g id="ic_fluent_fast_acceleration_24_filled" transform="translate(1.002 4)">
      <path id="_-Color" data-name="🎨-Color" d="M56.237,4A37.565,37.565,0,1,1,34.926,72.5l-30.61,0a3.315,3.315,0,0,1-.45-6.6l.45-.03,23.283,0a37.627,37.627,0,0,1-4.515-6.633H13.135a3.315,3.315,0,0,1-.45-6.6l.45-.03,7.19,0A37.633,37.633,0,0,1,27.6,17.258H8.728a3.315,3.315,0,0,1-.45-6.6l.45-.03H34.921A37.391,37.391,0,0,1,56.237,4Zm5.1,47.359a11.064,11.064,0,0,1-10.156.025L46.34,56.227a17.693,17.693,0,0,0,19.848-.018Zm-22.772-9.78a17.6,17.6,0,0,0,3.072,9.964l4.83-4.822a11.065,11.065,0,0,1-.027-10.266l-4.821-4.813A17.6,17.6,0,0,0,38.567,41.579ZM70.9,31.668,66.06,36.507a11.063,11.063,0,0,1-.027,10.16l4.849,4.849A17.693,17.693,0,0,0,70.9,31.668ZM56.237,37.146a4.415,4.415,0,1,0,4.415,4.415A4.415,4.415,0,0,0,56.237,37.146Zm.014-13.251a17.6,17.6,0,0,0-9.942,3.057l4.817,4.816a11.064,11.064,0,0,1,10.265.023l4.823-4.824A17.6,17.6,0,0,0,56.251,23.895Z" transform="translate(-1.002 -4)" fill="#fff"/>
    </g>
  </g>
</svg>
