<svg xmlns="http://www.w3.org/2000/svg" width="75.129" height="75.129" viewBox="0 0 75.129 75.129">
  <g id="quality-videos" transform="translate(-2 -2)">
    <g id="ic_fluent_app_recent_24_filled" transform="translate(2 2)">
      <path id="_-Color" data-name="🎨-Color" d="M62.1,68.677a8.453,8.453,0,0,1-7.874,8.432l-.578.02H25.478a8.453,8.453,0,0,1-8.433-7.874l-.019-.578V10.452A8.453,8.453,0,0,1,24.9,2.019L25.478,2H53.651a8.453,8.453,0,0,1,8.432,7.873l.02.579ZM65.86,13.269h2.817a8.453,8.453,0,0,1,8.432,7.873l.02.579V57.408a8.453,8.453,0,0,1-7.874,8.432l-.578.02H65.86ZM13.269,65.86H10.452a8.453,8.453,0,0,1-8.433-7.874L2,57.408V21.721a8.453,8.453,0,0,1,7.873-8.433l.579-.019h2.817Z" transform="translate(-2 -2)" fill="#f8f8f8"/>
    </g>
  </g>
</svg>
