<svg xmlns="http://www.w3.org/2000/svg" width="63.266" height="75.129" viewBox="0 0 63.266 75.129">
  <g id="self-paced" transform="translate(-4 -3)">
    <g id="ic_fluent_app_title_24_filled" transform="translate(4 3)">
      <path id="_-Color" data-name="🎨-Color" d="M6.966,72.2H64.3a2.966,2.966,0,0,1,.4,5.9l-.4.027H6.966a2.966,2.966,0,0,1-.4-5.9l.4-.027h0ZM52.438,3A14.828,14.828,0,0,1,67.266,17.828v33.61A14.828,14.828,0,0,1,52.438,66.266H18.828A14.828,14.828,0,0,1,4,51.438V17.828A14.828,14.828,0,0,1,18.828,3Z" transform="translate(-4 -3)" fill="#f8f8f8"/>
    </g>
  </g>
</svg>
