<svg xmlns="http://www.w3.org/2000/svg" width="57.057" height="70.945" viewBox="0 0 57.057 70.945">
  <path id="Trusted" d="M32.776,3H11.944A6.944,6.944,0,0,0,5,9.944V27.3M32.776,3,53.608,23.832M32.776,3V20.36a3.472,3.472,0,0,0,3.472,3.472h17.36m0,0v34.72A6.944,6.944,0,0,1,46.664,65.5H22.36A13.888,13.888,0,0,1,8.472,51.608h0A13.888,13.888,0,0,1,22.36,37.72H32.776m0,0L22.36,27.3M32.776,37.72,22.36,48.136" transform="translate(-1.5 1.95)" fill="none" stroke="#f8f8f8" stroke-linecap="round" stroke-linejoin="round" stroke-width="7"/>
</svg>
