<svg xmlns="http://www.w3.org/2000/svg" xmlns:xlink="http://www.w3.org/1999/xlink" width="600" height="600" viewBox="0 0 600 600">
  <defs>
    <clipPath id="clip-kreeck_logo_notification">
      <rect width="600" height="600"/>
    </clipPath>
  </defs>
  <g id="kreeck_logo_notification" clip-path="url(#clip-kreeck_logo_notification)">
    <rect id="Rectangle_165" data-name="Rectangle 165" width="600" height="600" rx="100" fill="#fff"/>
    <g id="Layer_2" transform="translate(-171.541 -205.761)">
      <g id="Group_10" data-name="Group 10" transform="translate(250 327.571)">
        <ellipse id="Ellipse_23" data-name="Ellipse 23" cx="14.698" cy="14.639" rx="14.698" ry="14.639" transform="translate(130.431 107.874)" fill="red"/>
        <g id="Group_7" data-name="Group 7">
          <g id="Group_6" data-name="Group 6">
            <path id="Path_57" data-name="Path 57" d="M546.413,420.722q8.136-13.226,16.3-26.424c6.97-11.309,12.563-20.854,22.23-29.671.787-.728,1.6-1.428,2.417-2.127.309-.252,2.979-2.379,1.518-1.26a66.236,66.236,0,0,1,5.705-3.919c1.658-1.036,3.344-1.987,5.059-2.883.956-.5,1.939-.98,2.923-1.428.647-.308,3.288-1.372,1.321-.616a83.785,83.785,0,0,1,11.382-3.555c1.8-.42,3.625-.756,5.48-1.064.365-.056.731-.084,1.1-.168,1.405-.252-1.855.14-.45.056,1.068-.056,2.164-.224,3.232-.308a88.311,88.311,0,0,1,10.539-.2c1.686.056,3.4.168,5.087.336.787.056,1.546.14,2.3.224.45.056.871.112,1.321.168-.955-.112-1.855-.28-.365-.028a122.931,122.931,0,0,1,17.649,4.031c2.642.812,5.255,1.735,7.841,2.715.59.224,1.18.476,1.8.7.478.2,2.3.952.478.2-1.8-.756,1.068.476,1.742.784,1.8.812,3.6,1.651,5.312,2.6-1.18-4.479-2.361-8.929-3.541-13.408q-15.977,24.982-31.982,49.936-25.5,39.8-50.981,79.635c-3.906,6.13-7.841,12.232-11.747,18.362a9.722,9.722,0,0,0,0,9.881q15.3,26.115,30.605,52.259,24.366,41.609,48.7,83.19c3.682,6.3,7.391,12.624,11.073,18.922.506-3.947,1.012-7.921,1.546-11.868a91.646,91.646,0,0,1-17.453,12.008c-1.461.756-2.923,1.456-4.44,2.155-2.782,1.26.956-.364-.7.28-.7.28-1.433.56-2.164.812a63.494,63.494,0,0,1-8.4,2.351c-.646.14-4.721.728-2.248.448-1.321.14-2.642.28-3.963.336a57.639,57.639,0,0,1-7.616-.112c-.731-.056-1.461-.14-2.22-.224.281.028,2.22.364.45.056-1.181-.224-2.361-.42-3.541-.672a57.7,57.7,0,0,1-6.745-1.931c-1.068-.364-2.136-.812-3.2-1.2,2.642.98-.7-.336-1.321-.644-1.967-.952-3.878-1.96-5.761-3.079-1.8-1.064-3.541-2.211-5.255-3.415-.731-.532-1.461-1.092-2.192-1.6-1.124-.784,1.911,1.567.365.28l-1.349-1.092a93.889,93.889,0,0,1-12.956-12.9c-1.068-1.288-2.108-2.911-.281-.308-.309-.448-.674-.84-.955-1.288-.281-.42-.534-.868-.815-1.316-3.288-5.71-6.436-11.477-9.668-17.215q-22.048-39.3-44.236-78.515-13.659-24.184-27.4-48.313c-7.982-14.024-15.542-28.159-25.687-40.755a145.412,145.412,0,0,0-55.7-41.819,171.517,171.517,0,0,0-65.426-13.912l-88.724-1.344c-.843,0-1.714-.028-2.557-.028v19.594c.927,0,1.883.056,2.81.14,1.068.084,2.108.168,3.176.28.646.056,1.321.168,1.967.224,1.855.2-2.417-.364-1.265-.168.365.056.759.112,1.152.168a120.032,120.032,0,0,1,24.731,6.466c.59.224,1.18.448,1.771.7,1.63.644.646.5-.337-.168a33.368,33.368,0,0,0,4.075,1.819c2.5,1.176,4.946,2.435,7.335,3.807q3.878,2.225,7.588,4.786c1.152.812,2.277,1.651,3.4,2.463-2.389-1.707-.309-.224.253.224.674.532,1.349,1.092,2,1.652a96.091,96.091,0,0,1,7.166,6.774c1.152,1.2,2.248,2.435,3.316,3.667.562.644,1.068,1.288,1.63,1.931l.59.756c.787.9-1.208-1.651-.169-.2a111.86,111.86,0,0,1,11.551,19.51l.59,1.344c-.14-.28-.787-1.959-.112-.28.337.812.674,1.651.984,2.463.787,2.071,1.518,4.143,2.192,6.27a127.811,127.811,0,0,1,3.457,13.268c.45,2.155.843,4.339,1.18,6.522.056.42.562,3.919.309,1.931.2,1.568.365,3.107.534,4.675.534,5.318.787,10.665.871,16.011.225,18.166,3.2,36.444,12.31,52.427,14.389,25.276,41.678,38.6,69.7,42.575,22.6,3.219,45.472,2.071,67.9-1.932,1.405-.252,2.81-.5,4.216-.784,5.2-1.036,8.206-7.194,6.857-12.064-1.49-5.4-6.885-7.894-12.113-6.83-3.232.644-6.464,1.2-9.7,1.708-1.012.168-2.023.308-3.063.448-2.052.308,2.7-.336.59-.084-.618.084-1.265.168-1.883.252-2.417.28-4.834.56-7.251.756a193.172,193.172,0,0,1-35.074.2c-1.546-.14-3.119-.308-4.665-.476-2.5-.28,1.068.168-.309-.028-.871-.14-1.742-.252-2.642-.392-3.12-.5-6.239-1.092-9.331-1.819-3.2-.756-6.352-1.624-9.471-2.659q-2.108-.714-4.216-1.512c-.731-.28-1.461-.588-2.22-.868-1.208-.448,1.855.84.7.28-.45-.224-.9-.392-1.349-.616a80.493,80.493,0,0,1-8.431-4.422c-1.377-.812-2.7-1.68-4.019-2.575-.646-.448-1.293-.924-1.939-1.4-.478-.336-1.405-1.148.562.448l-1.18-.924a70.272,70.272,0,0,1-7.307-6.858c-1.04-1.148-2-2.379-3.035-3.527-.843-.952,1.1,1.567.393.5-.225-.364-.506-.672-.759-1.008-.562-.784-1.1-1.567-1.63-2.351a70.857,70.857,0,0,1-5.143-9.265c-.365-.812-1.18-2.883-.394-.84-.337-.868-.7-1.763-1.012-2.631-.7-1.931-1.349-3.919-1.911-5.906a102.676,102.676,0,0,1-2.67-12.68c.337,2.211-.112-.952-.169-1.567-.112-1.008-.2-2.015-.281-3.023-.2-2.547-.309-5.094-.365-7.642-.393-19.9-2.473-39.943-9.977-58.558-10.679-26.536-30.408-48.2-56.77-59.9-13.855-6.158-29.678-10.944-45.023-11.084-.225,0-.45-.028-.675-.028a9.8,9.8,0,1,0,0,19.594l84.171,1.26c5.593.084,11.242,0,16.806.364q3.625.252,7.251.672c1.04.112,3.372-.168.028,0a10.953,10.953,0,0,1,2.108.308c1.771.28,3.541.56,5.284.9a158.787,158.787,0,0,1,24.057,6.438c2.248.784,4.5,1.651,6.689,2.547.45.2.9.364,1.349.56-2.361-.98-.028,0,.394.2,1.152.5,2.3,1.036,3.457,1.568a147.268,147.268,0,0,1,14.333,7.754c2.248,1.4,4.468,2.827,6.632,4.367,1.18.812,2.3,1.679,3.485,2.491,2.248,1.623-.9-.728.421.308.815.644,1.6,1.26,2.389,1.931a136.749,136.749,0,0,1,13.321,12.484q3.12,3.359,5.986,6.886c.506.644,1.04,1.288,1.546,1.932-.843-1.092.169.252.281.392,1.18,1.651,2.389,3.275,3.541,4.954,4.468,6.522,8.234,13.492,12.141,20.35q13.743,24.143,27.43,48.313,23.523,41.525,46.877,83.162c5.115,9.069,9.555,18.894,16.019,27.123,8.656,11.029,19.954,20.714,32.657,26.788a71.921,71.921,0,0,0,31,7.5c12.9.028,25.518-3.919,36.732-10.133a120.052,120.052,0,0,0,19.645-14.08c3.26-2.8,3.626-8.313,1.546-11.868q-15.3-26.116-30.605-52.259Q632.439,554,608.1,512.421c-3.682-6.3-7.392-12.624-11.073-18.922v9.881q15.977-24.982,31.982-49.936,25.5-39.8,50.981-79.635c3.907-6.13,7.841-12.232,11.747-18.362,2.838-4.423.956-10.889-3.541-13.408-17.312-9.713-38.868-14.863-58.625-14.443-17.79.392-35.551,5.682-49.913,16.291-12.984,9.573-22.371,21.889-30.718,35.465q-9.738,15.787-19.5,31.6a9.912,9.912,0,0,0,3.541,13.408,10.131,10.131,0,0,0,13.434-3.638Z" transform="translate(-250 -327.571)" fill="red"/>
          </g>
        </g>
        <g id="Group_9" data-name="Group 9" transform="translate(107.665 152.852)">
          <g id="Group_8" data-name="Group 8">
            <path id="Path_58" data-name="Path 58" d="M303.487,449.333a90.67,90.67,0,0,1-1.18-11.924c-.056-1.875-.056-3.751.028-5.626.028-.9.084-1.792.169-2.659.028-.364.365-3.135.14-1.651a49.287,49.287,0,0,1,2.248-9.405c.084-.252.871-2.3.534-1.455-.365.868.394-.84.506-1.092a35.207,35.207,0,0,1,2.248-4.031c.365-.56.759-1.092,1.124-1.651.646-.952-.843.9.421-.532.843-.98,1.714-1.932,2.642-2.827.45-.448.927-.868,1.433-1.287.478-.42,1.686-1.344.45-.42a38.279,38.279,0,0,1,3.6-2.407,35.547,35.547,0,0,1,3.232-1.707c.225-.112,2.164-.952,1.18-.56-.843.364,1.124-.42,1.49-.56a58.863,58.863,0,0,1,8.178-2.239c.7-.14,1.377-.252,2.08-.364.337-.056.7-.112,1.068-.168,1.012-.168-1.293.14-.281.028,1.546-.168,3.063-.336,4.609-.42,3.091-.2,6.211-.224,9.3-.112,3.2.112,6.408.42,9.612.784.309.028,1.377.2-.112-.028l1.18.168c.787.112,1.574.252,2.361.364,1.574.252,3.176.56,4.75.868a158.4,158.4,0,0,1,19.307,5.206c3.12,1.036,6.183,2.183,9.218,3.415.365.14.731.308,1.1.448.984.392-1.04-.448-.056-.028.7.308,1.433.616,2.136.924,1.49.644,2.951,1.316,4.412,2.015a124.682,124.682,0,0,1,16.806,9.629c.506.364,1.04.728,1.546,1.092.422.308,2.389,1.847.759.56,1.012.812,2.024,1.623,3.007,2.491a47.178,47.178,0,0,1,5.115,5.206c2.417,2.911,7.419,2.491,9.949,0,2.895-2.883,2.417-6.97,0-9.909-7.082-8.537-17.312-14.723-27.092-19.678a167.446,167.446,0,0,0-39.767-14.3c-24.844-5.486-57.388-6.494-74.588,15.815-11.354,14.723-11.3,34.317-8.4,51.812.618,3.723,5.255,5.822,8.656,4.9,3.963-1.176,5.508-4.954,4.89-8.677Z" transform="translate(-288.31 -382.179)" fill="red"/>
          </g>
        </g>
        <path id="Path_59" data-name="Path 59" d="M267.74,362.746s72.284,33.785,61.52,100.237c0,0,45.219-48.593,134.168,0,0,0-22.23-81.93-100.443-101.72C363.013,361.29,283,346.119,267.74,362.746Z" transform="translate(-217.883 -278.3)" fill="red"/>
      </g>
    </g>
  </g>
</svg>
