<svg xmlns="http://www.w3.org/2000/svg" width="18.947" height="16.637" viewBox="0 0 18.947 16.637">
  <g id="access_icon" transform="translate(0 0)">
    <g id="Group_5019" data-name="Group 5019" transform="translate(4.852 5.315)">
      <g id="Group_5018" data-name="Group 5018">
        <path id="Path_4632" data-name="Path 4632" d="M132.739,174.829a1.617,1.617,0,1,0,1.617,1.617A1.619,1.619,0,0,0,132.739,174.829Z" transform="translate(-131.122 -174.829)" fill="#4b4b4b"/>
      </g>
    </g>
    <g id="Group_5021" data-name="Group 5021" transform="translate(0 0)">
      <g id="Group_5020" data-name="Group 5020" transform="translate(0 0)">
        <path id="Path_4633" data-name="Path 4633" d="M18.947,45.083V31.219H0V45.083H6.932v1.386H5.315v1.386h8.318V46.469H12.015V45.083h6.932ZM11.322,40V38.844H9.392a3,3,0,1,1,0-1.386H15.25v1.386h-.693v1.617H13.171V38.844h-.462V40H11.322Z" transform="translate(0 -31.219)" fill="#4b4b4b"/>
      </g>
    </g>
  </g>
</svg>
