<svg id="certificate_icon" xmlns="http://www.w3.org/2000/svg" width="20" height="20" viewBox="0 0 20 20">
  <path id="Path_125" data-name="Path 125" d="M11.8,2a.764.764,0,0,0-.5.2L9.9,3.5,8.3,3.2a.73.73,0,0,0-.9.6L7.1,5.6l-1.7.8a.693.693,0,0,0-.3,1L5.9,9l-.8,1.6a.777.777,0,0,0,.3,1l1.7.8.3,1.8a.779.779,0,0,0,.9.6l1.9-.3,1.4,1.3a.785.785,0,0,0,1.1,0l1.4-1.3,1.9.3a.779.779,0,0,0,.9-.6l.3-1.8,1.7-.8a.693.693,0,0,0,.3-1L18.1,9l.8-1.6a.693.693,0,0,0-.3-1l-1.7-.8-.3-1.8a.779.779,0,0,0-.9-.6l-1.9.3L12.4,2.2C12.3,2,12,2,11.8,2ZM6.1,13.1,3,19.3l3.6-.5L8.4,22,11,16.7l-.2-.2-1-.9-1.4.2a1.856,1.856,0,0,1-2-1.4l-.3-1.3Zm11.8,0-.3,1.3a1.805,1.805,0,0,1-1.7,1.4h-.2l-1.4-.2-1,.9-.2.2L15.7,22l1.8-3.1,3.6.5Z" transform="translate(-2.008 -2)" fill="#4b4b4b"/>
  <rect id="Rectangle_155" data-name="Rectangle 155" width="20" height="20" fill="none"/>
</svg>
