<svg xmlns="http://www.w3.org/2000/svg" width="20.976" height="20" viewBox="0 0 20.976 20">
  <path id="compiler_icon" d="M22.53,10.1a.806.806,0,0,0-.818-.6A2.149,2.149,0,0,1,19.48,8.386a2.261,2.261,0,0,1,.149-2.455.7.7,0,0,0-.074-.967,10.163,10.163,0,0,0-4.165-2.38.759.759,0,0,0-.893.446,2.289,2.289,0,0,1-4.165,0,.693.693,0,0,0-.893-.446A9.547,9.547,0,0,0,5.273,5.039a.7.7,0,0,0-.074.967A2.269,2.269,0,0,1,5.347,8.46,2.4,2.4,0,0,1,3.116,9.576a.737.737,0,0,0-.818.6,8.357,8.357,0,0,0-.3,2.38,9.24,9.24,0,0,0,.3,2.455.685.685,0,0,0,.818.521,2.149,2.149,0,0,1,2.232,1.116A2.261,2.261,0,0,1,5.2,19.1a.7.7,0,0,0,.074.967,10.592,10.592,0,0,0,4.24,2.455.759.759,0,0,0,.893-.446,2.289,2.289,0,0,1,4.165,0,.715.715,0,0,0,.669.446h.223a10.592,10.592,0,0,0,4.24-2.455.7.7,0,0,0,.074-.967,2.269,2.269,0,0,1-.149-2.455,2.4,2.4,0,0,1,2.232-1.116.737.737,0,0,0,.818-.6,9.24,9.24,0,0,0,.3-2.455A8.953,8.953,0,0,0,22.53,10.1ZM9.215,14.262a.719.719,0,0,1,0,1.041.719.719,0,0,1-1.041,0L5.942,13.072a.719.719,0,0,1,0-1.041L8.174,9.8a.736.736,0,1,1,1.041,1.041L7.5,12.551Zm5.356-4.389L11.6,15.824a.715.715,0,0,1-.669.446c-.149,0-.223,0-.3-.074a.657.657,0,0,1-.3-.967l2.975-5.951a.657.657,0,0,1,.967-.3A.715.715,0,0,1,14.571,9.874Zm4.314,3.2L16.654,15.3a.719.719,0,0,1-1.041,0,.719.719,0,0,1,0-1.041l1.711-1.711-1.711-1.711A.736.736,0,0,1,16.654,9.8l2.232,2.232A.719.719,0,0,1,18.885,13.072Z" transform="translate(-2 -2.537)" fill="#f8f8f8"/>
</svg>
