<svg xmlns="http://www.w3.org/2000/svg" width="20.119" height="20" viewBox="0 0 20.119 20">
  <g id="course_builder_icon" transform="translate(-2 -4)">
    <path id="Path_126" data-name="Path 126" d="M6.318,17H2.682A.7.7,0,0,0,2,17.682V29.273a1.824,1.824,0,0,0,1.818,1.818h2.5A.7.7,0,0,0,7,30.409V17.682A.7.7,0,0,0,6.318,17Z" transform="translate(0 -7.091)" fill="#4b4b4b"/>
    <path id="Path_127" data-name="Path 127" d="M29.538,17H17.6a.66.66,0,0,0-.6.682V30.409a.66.66,0,0,0,.6.682H28.543a1.722,1.722,0,0,0,1.592-1.818V17.682A.66.66,0,0,0,29.538,17Z" transform="translate(-8.016 -7.091)" fill="#4b4b4b"/>
    <path id="Path_128" data-name="Path 128" d="M20.442,4H3.677A1.757,1.757,0,0,0,2,5.818V7.409a.674.674,0,0,0,.629.682H21.49a.674.674,0,0,0,.629-.682V5.818A1.757,1.757,0,0,0,20.442,4Z" fill="#4b4b4b"/>
  </g>
</svg>
