<svg xmlns="http://www.w3.org/2000/svg" width="14.419" height="17.09" viewBox="0 0 14.419 17.09">
  <g id="exam_prep" transform="translate(0 0)">
    <g id="ui-gambling-website-lined-icnos-casinoshunter" transform="translate(0 0)">
      <g id="_1" data-name="1">
        <path id="paper" d="M436.681,164v2.661a1.521,1.521,0,0,0,1.42,1.612h2.318v11.215a1.6,1.6,0,0,1-1.6,1.6H427.6a1.6,1.6,0,0,1-1.6-1.6V165.6a1.6,1.6,0,0,1,1.6-1.6Zm1.249.267,2.126,1.872a1.068,1.068,0,0,1,.363.8v.264H438.1c-.169,0-.352-.223-.352-.544v-2.522A1.093,1.093,0,0,1,437.93,164.266Z" transform="translate(-426 -163.999)" fill="#4b4b4b"/>
      </g>
    </g>
  </g>
</svg>
