<svg xmlns="http://www.w3.org/2000/svg" width="229.53" height="25" viewBox="0 0 229.53 31.264">
  <g id="full_logo_icon" transform="translate(0)">
    <text id="Kreeck_Academy." data-name="Kreeck Academy." transform="translate(43.53 23.632)" fill="#000900" font-size="22" font-family="Inter" font-weight="600"><tspan x="0" y="0">Kreeck Academy.</tspan></text>
    <g id="Layer_2" transform="translate(0 0)">
      <g id="Group_10" data-name="Group 10" transform="translate(0 0)">
        <ellipse id="Ellipse_23" data-name="Ellipse 23" cx="1.289" cy="1.284" rx="1.289" ry="1.284" transform="translate(11.442 9.464)" fill="#121b18"/>
        <g id="Group_7" data-name="Group 7">
          <g id="Group_6" data-name="Group 6">
            <path id="Path_57" data-name="Path 57" d="M276,335.743q.714-1.16,1.43-2.318a11.064,11.064,0,0,1,1.95-2.6c.069-.064.141-.125.212-.187.027-.022.261-.209.133-.11a5.8,5.8,0,0,1,.5-.344c.145-.091.293-.174.444-.253.084-.044.17-.086.256-.125.057-.027.289-.12.116-.054a7.347,7.347,0,0,1,1-.312c.158-.037.318-.066.481-.093.032,0,.064-.007.1-.015.123-.022-.163.012-.039,0,.094,0,.19-.02.284-.027a7.753,7.753,0,0,1,.925-.017c.148,0,.3.015.446.029.069,0,.136.012.2.02l.116.015c-.084-.01-.163-.025-.032,0a10.784,10.784,0,0,1,1.548.354c.232.071.461.152.688.238.052.02.1.042.158.061l.042.017c-.158-.066.094.042.153.069.158.071.316.145.466.228l-.311-1.176q-1.4,2.192-2.806,4.381-2.237,3.492-4.472,6.986c-.343.538-.688,1.073-1.031,1.611a.853.853,0,0,0,0,.867l2.685,4.585q2.138,3.65,4.273,7.3l.971,1.66c.044-.346.089-.695.136-1.041a8.038,8.038,0,0,1-1.531,1.053c-.128.066-.256.128-.39.189-.244.111.084-.032-.062.025-.062.025-.126.049-.19.071a5.568,5.568,0,0,1-.737.206c-.057.012-.414.064-.2.039-.116.012-.232.025-.348.029a5.055,5.055,0,0,1-.668-.01c-.064,0-.128-.012-.195-.02.025,0,.195.032.039,0-.1-.02-.207-.037-.311-.059a5.067,5.067,0,0,1-.592-.169c-.094-.032-.187-.071-.281-.106.232.086-.062-.029-.116-.056-.173-.083-.34-.172-.505-.27s-.311-.194-.461-.3c-.064-.047-.128-.1-.192-.14-.1-.069.168.138.032.025l-.118-.1a8.239,8.239,0,0,1-1.137-1.132c-.094-.113-.185-.255-.025-.027-.027-.039-.059-.074-.084-.113s-.047-.076-.071-.115c-.288-.5-.565-1.007-.848-1.51q-1.934-3.448-3.881-6.888-1.2-2.122-2.4-4.238a26.221,26.221,0,0,0-2.253-3.575,12.756,12.756,0,0,0-4.887-3.669,15.048,15.048,0,0,0-5.74-1.22l-7.784-.118-.224,0v1.719c.081,0,.165,0,.247.012s.185.015.279.025c.057,0,.116.015.173.02.163.017-.212-.032-.111-.015l.1.015a10.532,10.532,0,0,1,2.17.567c.052.02.1.039.155.061.143.056.057.044-.03-.015a2.931,2.931,0,0,0,.357.16c.219.1.434.214.644.334q.34.2.666.42c.1.071.2.145.3.216-.21-.15-.027-.02.022.02s.118.1.175.145a8.434,8.434,0,0,1,.629.594c.1.106.2.214.291.322.049.056.094.113.143.169l.052.066c.069.079-.106-.145-.015-.017a9.814,9.814,0,0,1,1.013,1.712l.052.118c-.012-.025-.069-.172-.01-.025.03.071.059.145.086.216.069.182.133.363.192.55a11.223,11.223,0,0,1,.3,1.164c.039.189.074.381.1.572,0,.037.049.344.027.169.017.137.032.273.047.41.047.467.069.936.076,1.4a9.424,9.424,0,0,0,1.08,4.6,8.13,8.13,0,0,0,6.114,3.735,18.8,18.8,0,0,0,5.957-.169c.123-.022.247-.044.37-.069a.867.867,0,0,0,.6-1.058.88.88,0,0,0-1.063-.6c-.284.056-.567.106-.851.15-.089.015-.178.027-.269.039-.18.027.237-.029.052-.007l-.165.022c-.212.025-.424.049-.636.066a16.947,16.947,0,0,1-3.077.017c-.136-.012-.274-.027-.409-.042-.219-.025.094.015-.027,0l-.232-.034c-.274-.044-.547-.1-.819-.16s-.557-.142-.831-.233q-.185-.063-.37-.133c-.064-.025-.128-.052-.195-.076-.106-.039.163.074.062.025-.039-.02-.079-.034-.118-.054a7.05,7.05,0,0,1-.74-.388c-.121-.071-.237-.147-.353-.226-.057-.039-.113-.081-.17-.123s-.123-.1.049.039l-.1-.081a6.165,6.165,0,0,1-.641-.6c-.091-.1-.175-.209-.266-.309-.074-.083.1.137.035.044-.02-.032-.044-.059-.067-.088-.049-.069-.1-.138-.143-.206a6.21,6.21,0,0,1-.451-.813c-.032-.071-.1-.253-.035-.074-.03-.076-.062-.155-.089-.231-.062-.169-.118-.344-.168-.518a8.99,8.99,0,0,1-.234-1.112c.03.194-.01-.083-.015-.137-.01-.088-.017-.177-.025-.265-.017-.223-.027-.447-.032-.67a14.4,14.4,0,0,0-.875-5.137,9.581,9.581,0,0,0-4.98-5.255,10.242,10.242,0,0,0-3.95-.972l-.059,0a.859.859,0,1,0,0,1.719l7.384.111c.491.007.986,0,1.474.032q.318.022.636.059c.091.01.3-.015,0,0a.957.957,0,0,1,.185.027c.155.025.311.049.464.079a13.928,13.928,0,0,1,2.11.565c.2.069.394.145.587.223l.118.049c-.207-.086,0,0,.035.017.1.044.2.091.3.138a12.919,12.919,0,0,1,1.257.68c.2.123.392.248.582.383.1.071.2.147.306.219.2.142-.079-.064.037.027.072.056.141.111.21.169a11.989,11.989,0,0,1,1.169,1.1q.274.295.525.6c.044.056.091.113.136.169-.074-.1.015.022.025.034.1.145.21.287.311.435.392.572.722,1.184,1.065,1.785q1.206,2.118,2.406,4.238,2.064,3.643,4.112,7.3a18.288,18.288,0,0,0,1.405,2.379,8.26,8.26,0,0,0,2.865,2.35,6.31,6.31,0,0,0,2.719.658,6.673,6.673,0,0,0,3.222-.889,10.529,10.529,0,0,0,1.723-1.235.866.866,0,0,0,.136-1.041l-2.685-4.585q-2.138-3.65-4.273-7.3l-.971-1.66v.867q1.4-2.192,2.806-4.381,2.237-3.492,4.472-6.986c.343-.538.688-1.073,1.031-1.611a.867.867,0,0,0-.311-1.176,10.4,10.4,0,0,0-5.143-1.267A7.658,7.658,0,0,0,278.92,329a10.609,10.609,0,0,0-2.695,3.111l-1.711,2.772a.87.87,0,0,0,.311,1.176.889.889,0,0,0,1.179-.319Z" transform="translate(-250 -327.571)" fill="#121b18"/>
          </g>
        </g>
        <g id="Group_9" data-name="Group 9" transform="translate(9.445 13.409)">
          <g id="Group_8" data-name="Group 8">
            <path id="Path_58" data-name="Path 58" d="M289.641,388.07a7.952,7.952,0,0,1-.1-1.046c0-.164,0-.329,0-.494,0-.079.007-.157.015-.233,0-.032.032-.275.012-.145a4.325,4.325,0,0,1,.2-.825c.007-.022.076-.2.047-.128s.035-.074.044-.1a3.083,3.083,0,0,1,.2-.354c.032-.049.067-.1.1-.145.057-.083-.074.079.037-.047.074-.086.15-.169.232-.248.039-.039.081-.076.126-.113s.148-.118.039-.037a3.351,3.351,0,0,1,.316-.211,3.135,3.135,0,0,1,.284-.15c.02-.01.19-.083.1-.049s.1-.037.131-.049a5.158,5.158,0,0,1,.717-.2c.062-.012.121-.022.182-.032l.094-.015c.089-.015-.113.012-.025,0,.136-.015.269-.029.4-.037.271-.017.545-.02.816-.01s.562.037.843.069c.027,0,.121.017-.01,0l.1.015.207.032c.138.022.279.049.417.076a13.893,13.893,0,0,1,1.694.457c.274.091.542.192.809.3l.1.039c.086.034-.091-.039,0,0l.187.081c.131.056.259.115.387.177a10.935,10.935,0,0,1,1.474.845l.136.1c.037.027.21.162.067.049.089.071.178.142.264.219a4.135,4.135,0,0,1,.449.457.616.616,0,0,0,.873-.869,7.386,7.386,0,0,0-2.377-1.726,14.689,14.689,0,0,0-3.489-1.255c-2.18-.481-5.035-.57-6.543,1.387a5.792,5.792,0,0,0-.737,4.545.623.623,0,0,0,.759.43.64.64,0,0,0,.429-.761Z" transform="translate(-288.31 -382.179)" fill="#121b18"/>
          </g>
        </g>
        <path id="Path_59" data-name="Path 59" d="M267.74,355.641s6.341,2.964,5.4,8.793c0,0,3.967-4.263,11.77,0,0,0-1.95-7.187-8.812-8.924C276.1,355.513,269.079,354.182,267.74,355.641Z" transform="translate(-263.366 -348.233)" fill="#121b18"/>
      </g>
    </g>
  </g>
</svg>
