<svg xmlns="http://www.w3.org/2000/svg" width="12.656" height="12.455" viewBox="0 0 12.656 12.455">
  <g id="learn_icon" transform="translate(0)">
    <path id="Path_4626" data-name="Path 4626" d="M12.459,0a.6.6,0,0,0,0,1.205h.554L11.43,2.788a.6.6,0,0,0,.852.852l1.583-1.583v.554a.6.6,0,1,0,1.205,0V.6a.6.6,0,0,0-.6-.6Z" transform="translate(-2.415)" fill="#f8f8f8"/>
    <path id="Path_4627" data-name="Path 4627" d="M6.538,4.059a.6.6,0,0,0-.522,0L.591,6.671a.6.6,0,0,0,0,1.086l1.065.513v2.821a.6.6,0,0,0,.051.243l.551-.243c-.551.243-.551.244-.551.244l0,0,0,0,0,.01a1.019,1.019,0,0,0,.06.112,2.189,2.189,0,0,0,.169.243,3.178,3.178,0,0,0,.737.659,6.374,6.374,0,0,0,3.576.873,5.44,5.44,0,0,0,3.432-.9,2.43,2.43,0,0,0,.627-.71,1.763,1.763,0,0,0,.153-.359l.008-.033,0-.014v-.008h0s0,0-.59-.123l.591.121a.615.615,0,0,0,.012-.121V8.464l1.466-.707a.6.6,0,0,0,0-1.085L6.538,4.06ZM9.29,9.044,6.538,10.369a.6.6,0,0,1-.522,0L2.861,8.85v2.072l.027.035a1.98,1.98,0,0,0,.458.4,5.206,5.206,0,0,0,2.911.673,4.308,4.308,0,0,0,2.69-.645,1.21,1.21,0,0,0,.318-.354q.013-.022.024-.046Zm-3.013.112L2.242,7.214,6.276,5.271l4.034,1.943L6.276,9.157Z" transform="translate(-0.25 -0.786)" fill="#f8f8f8" fill-rule="evenodd"/>
  </g>
</svg>
