<svg xmlns="http://www.w3.org/2000/svg" width="18.947" height="13.953" viewBox="0 0 18.947 13.953">
  <g id="live-session_icon" transform="translate(0 0)">
    <g id="ic_fluent_live_24_filled" transform="translate(0 0)">
      <path id="_-Color" data-name="🎨-Color" d="M6.113,4.923a.947.947,0,0,1,0,1.339,7.579,7.579,0,0,0,0,10.719.947.947,0,1,1-1.339,1.34,9.474,9.474,0,0,1,0-13.4A.947.947,0,0,1,6.113,4.923Zm12.058,0a9.474,9.474,0,0,1,0,13.4.947.947,0,0,1-1.339-1.34,7.579,7.579,0,0,0,0-10.719.947.947,0,0,1,1.339-1.339ZM8.923,7.645a.947.947,0,0,1,0,1.339,3.713,3.713,0,0,0,0,5.251.947.947,0,1,1-1.339,1.339,5.607,5.607,0,0,1,0-7.93A.947.947,0,0,1,8.923,7.645Zm6.59,0a5.607,5.607,0,0,1,0,7.93.947.947,0,0,1-1.339-1.339,3.713,3.713,0,0,0,0-5.251.947.947,0,0,1,1.339-1.339Zm-3.965,2.623a1.421,1.421,0,1,1-1.421,1.421A1.421,1.421,0,0,1,11.548,10.268Z" transform="translate(-1.999 -4.646)" fill="#4b4b4b"/>
    </g>
  </g>
</svg>
