<svg xmlns="http://www.w3.org/2000/svg" width="11.605" height="14.506" viewBox="0 0 11.605 14.506">
  <path id="lock_icon" d="M6.9,4.176V6.355a8.329,8.329,0,0,0-.963.057,2.155,2.155,0,0,0-1.3.578,2.155,2.155,0,0,0-.578,1.3A13.337,13.337,0,0,0,4,9.93v3a13.337,13.337,0,0,0,.06,1.641,2.155,2.155,0,0,0,.578,1.3,2.155,2.155,0,0,0,1.3.578,13.336,13.336,0,0,0,1.641.06h4.447a13.336,13.336,0,0,0,1.641-.06,1.981,1.981,0,0,0,1.879-1.879,13.337,13.337,0,0,0,.06-1.641v-3a13.337,13.337,0,0,0-.06-1.641,2.155,2.155,0,0,0-.578-1.3,2.155,2.155,0,0,0-1.3-.578,8.327,8.327,0,0,0-.963-.057V4.176A2.176,2.176,0,0,0,10.528,2H9.077A2.176,2.176,0,0,0,6.9,4.176Zm2.176-.725a.725.725,0,0,0-.725.725V6.352h2.9V4.176a.725.725,0,0,0-.725-.725ZM9.8,9.978a1.451,1.451,0,1,0,1.451,1.451A1.451,1.451,0,0,0,9.8,9.978Z" transform="translate(-4 -2)" fill="#b5b5b5" fill-rule="evenodd"/>
</svg>
