<svg xmlns="http://www.w3.org/2000/svg" width="20" height="20" viewBox="0 0 20 20">
  <g id="logout_icon" transform="translate(-2 -2)">
    <path id="Path_118" data-name="Path 118" d="M17.293,14.293a1,1,0,0,0,1.414,1.414l2.913-2.913.044-.046a1,1,0,0,0,0-1.5l-.044-.046L18.707,8.293a1,1,0,1,0-1.414,1.414L18.586,11H13a1,1,0,0,0,0,2h5.586Z" fill="#4b4b4b"/>
    <path id="Path_119" data-name="Path 119" d="M5,2A3,3,0,0,0,2,5V19a3,3,0,0,0,3,3h9.5A2.5,2.5,0,0,0,17,19.5V16.733A2,2,0,0,1,16.267,14H13a2,2,0,0,1,0-4h3.267A2,2,0,0,1,17,7.267V4.5A2.5,2.5,0,0,0,14.5,2Z" fill="#4b4b4b"/>
  </g>
</svg>
