<svg id="my_courses_icon" xmlns="http://www.w3.org/2000/svg" width="20" height="20" viewBox="0 0 20 20">
  <path id="Path_111" data-name="Path 111" d="M19.167,1.667H10.833V.833a.833.833,0,1,0-1.667,0v.833H.833a.833.833,0,0,0,0,1.667h.833V10A3.332,3.332,0,0,0,5,13.333H9.167V14.65L5.242,18.575a.84.84,0,0,0,0,1.183.845.845,0,0,0,1.183,0l2.742-2.742v2.15a.833.833,0,1,0,1.667,0v-2.15l2.742,2.742a.845.845,0,0,0,1.183,0,.84.84,0,0,0,0-1.183L10.833,14.65V13.333H15A3.332,3.332,0,0,0,18.333,10V3.333h.833a.833.833,0,1,0,0-1.667ZM16.667,10A1.672,1.672,0,0,1,15,11.667H5A1.672,1.672,0,0,1,3.333,10V3.333H16.667Z" fill="#4b4b4b"/>
  <path id="Path_112" data-name="Path 112" d="M14.333,7.667h-7.5A.833.833,0,1,1,6.833,6h7.5a.833.833,0,0,1,0,1.667ZM11,11H6.833a.833.833,0,1,1,0-1.667H11A.833.833,0,0,1,11,11Z" transform="translate(-1 -1)" fill="#4b4b4b"/>
</svg>
