<svg id="notification_icon" xmlns="http://www.w3.org/2000/svg" width="17.291" height="20.343" viewBox="0 0 17.291 20.343">
  <g id="Dribbble-Light-Preview">
    <g id="icons">
      <path id="notification_bell-_1397_" data-name="notification_bell-[#1397]" d="M137.969,574.24h-8.646v-6.1a4.044,4.044,0,0,1,4.322-4.069h0a4.044,4.044,0,0,1,4.322,4.069Zm-3.242,3.051a1.083,1.083,0,0,1-2.161,0v-1.017h2.161Zm6.484-3.051a1.051,1.051,0,0,1-1.081-1.017v-5.086a5.912,5.912,0,0,0-5.4-6.023v-1.1a1.083,1.083,0,0,0-2.161,0v1.1a5.912,5.912,0,0,0-5.4,6.023v5.086a1.051,1.051,0,0,1-1.08,1.017,1.019,1.019,0,1,0,0,2.034H130.4v1.017a3.248,3.248,0,0,0,6.484,0v-1.017h4.323a1.019,1.019,0,1,0,0-2.034Z" transform="translate(-125 -560)" fill-rule="evenodd"/>
    </g>
  </g>
</svg>
