<svg id="pre_recorded_icon" xmlns="http://www.w3.org/2000/svg" width="18.947" height="11.054" viewBox="0 0 18.947 11.054">
  <path id="Path_4634" data-name="Path 4634" d="M18.306,22.914H7.735A1.8,1.8,0,0,1,5.75,21.4V13.369A1.8,1.8,0,0,1,7.735,11.86H18.306a1.8,1.8,0,0,1,1.985,1.509V21.4a1.8,1.8,0,0,1-1.985,1.509ZM7.735,12.683a.817.817,0,0,0-.9.686V21.4a.817.817,0,0,0,.9.686H18.306a.817.817,0,0,0,.9-.686V13.369a.817.817,0,0,0-.9-.686Z" transform="translate(-5.75 -11.86)" fill="#4b4b4b"/>
  <path id="Path_4635" data-name="Path 4635" d="M47.962,24.815a.771.771,0,0,1-.242-.037l-4.407-1.4c-.191-.056-.313-.177-.314-.31V20.478c0-.134.122-.256.314-.312l4.407-1.4a.812.812,0,0,1,.528.013.343.343,0,0,1,.255.294v5.4a.352.352,0,0,1-.256.292A.827.827,0,0,1,47.962,24.815Zm-3.88-1.958,3.324,1.056V19.634l-3.324,1.058Z" transform="translate(-29.556 -16.248)" fill="#4b4b4b"/>
</svg>
