<svg xmlns="http://www.w3.org/2000/svg" width="20.238" height="20" viewBox="0 0 20.238 20">
  <g id="programs_icon" transform="translate(-6 -6)">
    <path id="Path_115" data-name="Path 115" d="M17.644,16.771H19.5l-.928-2.247Z" transform="translate(-5.822 -4.262)" fill="#4b4b4b"/>
    <path id="Path_116" data-name="Path 116" d="M8.625,6A2.625,2.625,0,0,0,6,8.625v12.75A2.625,2.625,0,0,0,8.625,24h6.634a6.514,6.514,0,0,1-.621-5.752H8.625a.625.625,0,0,1,0-1.25h6.636A6.5,6.5,0,0,1,24,14.877V8.625A2.625,2.625,0,0,0,21.375,6ZM8,20.625A.625.625,0,0,1,8.625,20h4a.625.625,0,0,1,0,1.25h-4A.625.625,0,0,1,8,20.625ZM12.749,8a.625.625,0,0,1,.578.386L15.7,14.139a.625.625,0,0,1-1.155.477l-.354-.857H11.306l-.353.856A.625.625,0,1,1,9.8,14.139l2.374-5.753A.625.625,0,0,1,12.749,8Zm6.125,0a.625.625,0,0,1,.625.625V10h1.376a.625.625,0,0,1,0,1.25H19.5v1.374a.625.625,0,1,1-1.25,0V11.25H16.875a.625.625,0,0,1,0-1.25h1.374V8.624A.625.625,0,0,1,18.874,8Z" fill="#4b4b4b"/>
    <path id="Path_117" data-name="Path 117" d="M35.475,29.5a5.5,5.5,0,1,1-5.5-5.5A5.5,5.5,0,0,1,35.475,29.5Zm-5-3.5a.5.5,0,0,0-1,0v3h-3a.5.5,0,0,0,0,1h3v3a.5.5,0,0,0,1,0V30h3a.5.5,0,0,0,0-1h-3Z" transform="translate(-9.238 -9)" fill="#4b4b4b"/>
  </g>
</svg>
