<svg xmlns="http://www.w3.org/2000/svg" width="31" height="31" viewBox="0 0 27.428 24">
  <g id="sidebar-show-right-svgrepo-com" transform="translate(0 -1)">
    <path id="Path_4639" data-name="Path 4639" d="M9.5,22.571V2h8.571V22.571Zm0,0" transform="translate(6.786 0.714)" fill="rgba(0,0,0,0.34)"/>
    <path id="Path_4640" data-name="Path 4640" d="M22.286,1a5.17,5.17,0,0,1,5.143,5.143V19.857A5.17,5.17,0,0,1,22.286,25H5.143A5.17,5.17,0,0,1,0,19.857V6.143A5.17,5.17,0,0,1,5.143,1Zm0,3.429H5.143A1.676,1.676,0,0,0,3.429,6.143V19.857a1.676,1.676,0,0,0,1.714,1.714H22.286S24,20.835,24,19.857V6.143A1.676,1.676,0,0,0,22.286,4.429Zm0,0" fill="#121b18"/>
    <path id="Path_4641" data-name="Path 4641" d="M10.714,2H9V22.571h1.714Zm0,0" transform="translate(6.428 0.714)" fill="#121b18"/>
  </g>
</svg>
