<svg xmlns="http://www.w3.org/2000/svg" width="20" height="20" viewBox="0 0 20 20">
  <path id="schedule_icon" d="M3,9H21M7,3V5M17,3V5M6,12H8m3,0h2m3,0h2M6,15H8m3,0h2m3,0h2M6,18H8m3,0h2m3,0h2M6.2,21H17.8a4.968,4.968,0,0,0,2.108-.218,2,2,0,0,0,.874-.874A4.968,4.968,0,0,0,21,17.8V8.2a4.968,4.968,0,0,0-.218-2.108,2,2,0,0,0-.874-.874A4.969,4.969,0,0,0,17.8,5H6.2a4.969,4.969,0,0,0-2.108.218,2,2,0,0,0-.874.874A4.969,4.969,0,0,0,3,8.2v9.6a4.969,4.969,0,0,0,.218,2.108,2,2,0,0,0,.874.874A4.968,4.968,0,0,0,6.2,21Z" transform="translate(-2 -2)" fill="none" stroke="#4b4b4b" stroke-linecap="round" stroke-width="2"/>
</svg>
