<svg xmlns="http://www.w3.org/2000/svg" width="19.725" height="19.724" viewBox="0 0 19.725 19.724">
  <g id="settings_icon" transform="translate(13.901 12.157)">
    <path id="path356" d="M.563-12.157A1.315,1.315,0,0,0-.752-10.843v.658H-12.586A1.315,1.315,0,0,0-13.9-8.87a1.315,1.315,0,0,0,1.315,1.315H-.752V-6.9A1.315,1.315,0,0,0,.563-5.582,1.315,1.315,0,0,0,1.879-6.9v-.659H4.508A1.315,1.315,0,0,0,5.823-8.87a1.315,1.315,0,0,0-1.315-1.314H1.879v-.658A1.315,1.315,0,0,0,.563-12.157ZM-8.97-5.582a1.315,1.315,0,0,0-1.315,1.315v.658h-2.3A1.315,1.315,0,0,0-13.9-2.3,1.315,1.315,0,0,0-12.585-.981h2.3v.659A1.315,1.315,0,0,0-8.97.993,1.315,1.315,0,0,0-7.655-.322V-.981H4.508A1.315,1.315,0,0,0,5.823-2.3,1.315,1.315,0,0,0,4.508-3.61H-7.655v-.658A1.315,1.315,0,0,0-8.97-5.582ZM-4.7.993A1.315,1.315,0,0,0-6.012,2.307v.658h-6.574A1.315,1.315,0,0,0-13.9,4.279a1.315,1.315,0,0,0,1.315,1.315h6.574v.659A1.315,1.315,0,0,0-4.7,7.567,1.315,1.315,0,0,0-3.381,6.253V5.594H4.508a1.315,1.315,0,1,0,0-2.629H-3.381V2.307A1.315,1.315,0,0,0-4.7.993Z" transform="translate(0)" fill="#4b4b4b"/>
  </g>
</svg>
