<svg xmlns="http://www.w3.org/2000/svg" width="12.001" height="16" viewBox="0 0 12.001 16">
  <path id="stars_icon" d="M7.657,6.247a.361.361,0,0,1,.686,0l.645,1.937a2.89,2.89,0,0,0,1.829,1.828l1.936.645a.361.361,0,0,1,0,.686l-1.937.645a2.89,2.89,0,0,0-1.828,1.829l-.645,1.936a.361.361,0,0,1-.686,0l-.645-1.937a2.89,2.89,0,0,0-1.828-1.828l-1.937-.645a.361.361,0,0,1,0-.686l1.937-.645A2.89,2.89,0,0,0,7.012,8.184l.645-1.937Zm-3.863-5.1a.217.217,0,0,1,.412,0L4.593,2.31a1.736,1.736,0,0,0,1.1,1.1l1.162.387a.217.217,0,0,1,0,.412L5.69,4.593a1.734,1.734,0,0,0-1.1,1.1L4.206,6.852a.217.217,0,0,1-.412,0L3.407,5.69a1.734,1.734,0,0,0-1.1-1.1L1.148,4.206a.217.217,0,0,1,0-.412L2.31,3.407a1.734,1.734,0,0,0,1.1-1.1l.387-1.162ZM10.863.1a.145.145,0,0,1,.274,0L11.4.873a1.155,1.155,0,0,0,.732.732l.774.258a.145.145,0,0,1,0,.274l-.774.258a1.156,1.156,0,0,0-.732.732l-.258.774a.145.145,0,0,1-.274,0L10.6,3.127a1.156,1.156,0,0,0-.732-.732L9.1,2.137a.145.145,0,0,1,0-.274l.774-.258a1.155,1.155,0,0,0,.732-.732L10.863.1Z" transform="translate(-0.999 -0.001)" fill="#65a98f"/>
</svg>
