<svg id="time_icon" xmlns="http://www.w3.org/2000/svg" width="18.947" height="18.116" viewBox="0 0 18.947 18.116">
  <path id="Path_4628" data-name="Path 4628" d="M179.465,146.79l1.888,1.456a1.186,1.186,0,0,0,2.364-.146c0-.025-.006-.049-.008-.074l2.767-3.273a.461.461,0,1,0-.682-.607l-2.718,2.9a1.147,1.147,0,0,0-1.13.019l-1.777-1.238a.6.6,0,0,0-.7.959Z" transform="translate(-172.637 -139.042)" fill="#4b4b4b"/>
  <path id="Path_4629" data-name="Path 4629" d="M16.295,13.892A9.033,9.033,0,0,0,9.89,11.239v2.2A6.866,6.866,0,1,1,3.267,18.5l.89.554a.424.424,0,0,0,.379.04.325.325,0,0,0,.205-.28L5.124,13.8a.43.43,0,0,0-.627-.39L.162,15.966A.324.324,0,0,0,0,16.273a.421.421,0,0,0,.2.323l1.136.708a9.058,9.058,0,1,0,14.954-3.412Z" transform="translate(0 -11.239)" fill="#4b4b4b"/>
</svg>
