<svg xmlns="http://www.w3.org/2000/svg" width="18.947" height="18.045" viewBox="0 0 18.947 18.045">
  <path id="views_icon" d="M6.511,15.534v3.609a.9.9,0,0,1-.9.9H2.9a.9.9,0,0,1-.9-.9V15.534a.9.9,0,0,1,.9-.9H5.609A.9.9,0,0,1,6.511,15.534Zm6.316-2.707H10.12a.9.9,0,0,0-.9.9v5.414a.9.9,0,0,0,.9.9h2.707a.9.9,0,0,0,.9-.9V13.729A.9.9,0,0,0,12.827,12.827Zm7.218-3.609H17.338a.9.9,0,0,0-.9.9v9.023a.9.9,0,0,0,.9.9h2.707a.9.9,0,0,0,.9-.9V10.12A.9.9,0,0,0,20.045,9.218Zm-1.8-2.49a.928.928,0,0,0,1.8-.433l-.9-3.609h0V2.6a1.209,1.209,0,0,0-.108-.217l-.072-.072a.9.9,0,0,0-.171-.153h-.063A.812.812,0,0,0,18.421,2H14.632a.9.9,0,0,0,0,1.8h1.922C12.647,8.938,5.519,10.12,2.9,10.12a.9.9,0,1,0,0,1.8c2.851,0,10.565-1.3,14.95-6.866Z" transform="translate(-2 -2)" fill="#4b4b4b"/>
</svg>
